<svg width="369" height="369" viewBox="0 0 369 369" fill="none" xmlns="http://www.w3.org/2000/svg">
<path d="M206.935 153.438H329.798C350.928 153.438 368.052 170.57 368.052 191.71V191.885C368.052 213.025 350.928 230.157 329.798 230.157H206.935C185.806 230.157 168.682 213.025 168.682 191.885V191.71C168.682 170.57 185.806 153.438 206.935 153.438Z" fill="#008850"/>
<path fill-rule="evenodd" clip-rule="evenodd" d="M260.802 109.382L315.925 55.714C286.563 25.5264 247.743 6.32387 205.941 1.30958C164.139 -3.70471 121.883 5.77243 86.2206 28.1601C50.558 50.5479 23.6464 84.4923 9.97425 124.332C-3.69788 164.171 -3.30363 207.495 11.0913 247.079C25.4861 286.663 53.0112 320.111 89.0749 341.846C125.139 363.58 167.561 372.286 209.265 366.511C250.968 360.736 289.432 340.829 318.24 310.112C347.047 279.394 364.457 239.723 367.565 197.716L290.859 192.035C289.051 216.486 278.917 239.577 262.149 257.456C245.382 275.336 222.993 286.923 198.719 290.284C174.446 293.645 149.753 288.578 128.762 275.927C107.771 263.277 91.7501 243.808 83.3714 220.768C74.9927 197.728 74.7631 172.51 82.7211 149.322C90.679 126.133 106.343 106.376 127.1 93.3446C147.858 80.3136 172.454 74.7973 196.785 77.7156C221.116 80.6344 243.711 91.8112 260.802 109.382Z" fill="#008850"/>
<path fill-rule="evenodd" clip-rule="evenodd" d="M290.724 192.136C290.724 170.764 308.04 153.438 329.401 153.438C350.763 153.438 368.079 170.764 368.079 192.136C368.079 213.508 350.763 230.833 329.401 230.833C308.04 230.833 290.724 213.508 290.724 192.136Z" fill="#008850"/>
<path fill-rule="evenodd" clip-rule="evenodd" d="M250.558 83.2419C250.558 61.9289 267.827 44.6512 289.129 44.6512C310.432 44.6512 327.701 61.9289 327.701 83.2419C327.701 104.555 310.432 121.833 289.129 121.833C267.827 121.833 250.558 104.555 250.558 83.2419Z" fill="#008850"/>
</svg>
