<svg width="2336" height="428" viewBox="0 0 2336 428" fill="none" xmlns="http://www.w3.org/2000/svg">
<path fill-rule="evenodd" clip-rule="evenodd" d="M1156.73 205.673L1212.39 175.775C1198.42 149.742 1176.19 129.094 1149.21 117.079C1122.22 105.063 1092.02 102.363 1063.33 109.401C1034.65 116.44 1009.13 132.82 990.773 155.962C972.419 179.104 962.277 207.696 961.944 237.24C961.611 266.784 971.105 295.602 988.933 319.162C1006.76 342.722 1031.91 359.686 1060.43 367.384C1088.94 375.083 1119.2 373.08 1146.45 361.69C1173.7 350.301 1196.39 330.171 1210.94 304.468L1155.96 273.293C1148.32 286.799 1136.39 297.376 1122.08 303.361C1107.76 309.345 1091.86 310.398 1076.88 306.353C1061.89 302.308 1048.68 293.394 1039.31 281.015C1029.94 268.635 1024.95 253.493 1025.13 237.969C1025.3 222.446 1030.63 207.422 1040.28 195.262C1049.92 183.102 1063.33 174.495 1078.4 170.797C1093.47 167.098 1109.35 168.518 1123.53 174.831C1137.7 181.144 1149.38 191.994 1156.73 205.673Z" fill="#008850"/>
<rect x="1156" y="3.00049" width="68" height="369" rx="34" fill="#008850"/>
<path fill-rule="evenodd" clip-rule="evenodd" d="M605.38 219.74L667.003 205.763C660.474 176.947 644.555 151.121 621.75 132.348C598.945 113.574 570.55 102.918 541.03 102.057C511.51 101.196 482.542 110.178 458.683 127.59C434.824 145.002 417.427 169.857 409.231 198.243C401.035 226.629 402.503 256.935 413.406 284.395C424.308 311.855 444.026 334.909 469.457 349.93C494.888 364.951 524.589 371.088 553.886 367.373C583.185 363.659 610.417 350.305 631.299 329.412L586.62 284.711C575.647 295.689 561.338 302.706 545.944 304.657C530.55 306.609 514.943 303.384 501.58 295.492C488.218 287.599 477.857 275.485 472.129 261.057C466.4 246.628 465.628 230.704 469.935 215.788C474.242 200.873 483.383 187.814 495.919 178.664C508.456 169.515 523.677 164.795 539.188 165.248C554.699 165.701 569.619 171.3 581.602 181.164C593.585 191.028 601.95 204.599 605.38 219.74Z" fill="#008850"/>
<path fill-rule="evenodd" clip-rule="evenodd" d="M601.347 334.037C601.347 314.933 616.827 299.445 635.922 299.445C655.018 299.445 670.497 314.933 670.497 334.037C670.497 353.142 655.018 368.629 635.922 368.629C616.827 368.629 601.347 353.142 601.347 334.037Z" fill="#008850"/>
<path fill-rule="evenodd" clip-rule="evenodd" d="M604.829 213.946C604.829 196.508 618.958 182.372 636.388 182.372C653.817 182.372 667.947 196.508 667.947 213.946C667.947 231.384 653.817 245.521 636.388 245.521C618.958 245.521 604.829 231.384 604.829 213.946Z" fill="#008850"/>
<path fill-rule="evenodd" clip-rule="evenodd" d="M578.689 305.799C578.689 288.361 592.818 274.225 610.248 274.225C627.678 274.225 641.807 288.361 641.807 305.799C641.807 323.237 627.678 337.374 610.248 337.374C592.818 337.374 578.689 323.237 578.689 305.799Z" fill="#008850"/>
<path fill-rule="evenodd" clip-rule="evenodd" d="M508.088 235.29C508.088 217.852 522.217 203.716 539.647 203.716C557.077 203.716 571.206 217.852 571.206 235.29C571.206 252.728 557.077 266.864 539.647 266.864C522.217 266.864 508.088 252.728 508.088 235.29Z" fill="#FCD20F"/>
<path d="M631.531 282.842L660.771 310.135C673.257 321.79 673.935 341.36 662.286 353.852C650.636 366.345 631.076 367.024 618.59 355.369L589.351 328.076C576.864 316.421 576.186 296.851 587.835 284.358C599.485 271.865 619.045 271.187 631.531 282.842Z" fill="#008850"/>
<path fill-rule="evenodd" clip-rule="evenodd" d="M856.16 208.045H925.087C925.087 194.571 922.435 181.23 917.282 168.782C912.128 156.335 904.575 145.025 895.052 135.498C885.53 125.97 874.225 118.413 861.784 113.257C849.342 108.101 836.007 105.448 822.541 105.448C809.074 105.448 795.74 108.101 783.298 113.257C770.857 118.413 759.552 125.97 750.03 135.498C740.507 145.025 732.954 156.335 727.8 168.782C722.647 181.23 719.994 194.571 719.994 208.045H788.922C788.922 203.628 789.791 199.254 791.481 195.173C793.17 191.092 795.647 187.384 798.769 184.261C801.891 181.138 805.597 178.66 809.675 176.969C813.754 175.279 818.126 174.409 822.541 174.409C826.955 174.409 831.327 175.279 835.406 176.969C839.485 178.66 843.191 181.138 846.313 184.261C849.435 187.384 851.911 191.092 853.601 195.173C855.29 199.254 856.16 203.628 856.16 208.045Z" fill="#008850"/>
<path d="M719.796 337.432L719.796 139.693C719.796 120.668 735.207 105.249 754.224 105.249C773.24 105.249 788.651 120.668 788.651 139.693V337.432C788.651 356.458 773.24 371.877 754.224 371.877C735.207 371.877 719.796 356.458 719.796 337.432Z" fill="#008850"/>
<path d="M856.232 337.432L856.232 208.583C856.232 189.558 871.643 174.138 890.66 174.138C909.676 174.138 925.088 189.558 925.088 208.583V337.432C925.088 356.458 909.676 371.877 890.66 371.877C871.643 371.877 856.232 356.458 856.232 337.432Z" fill="#008850"/>
<path fill-rule="evenodd" clip-rule="evenodd" d="M2198.72 269.081H2129.8C2129.8 282.555 2132.45 295.896 2137.6 308.344C2142.76 320.791 2150.31 332.101 2159.83 341.628C2169.35 351.156 2180.66 358.713 2193.1 363.869C2205.54 369.025 2218.88 371.678 2232.34 371.678C2245.81 371.678 2259.14 369.025 2271.59 363.869C2284.03 358.713 2295.33 351.156 2304.85 341.628C2314.38 332.101 2321.93 320.791 2327.08 308.344C2332.24 295.896 2334.89 282.555 2334.89 269.081H2265.96C2265.96 273.498 2265.09 277.872 2263.4 281.953C2261.71 286.034 2259.24 289.742 2256.11 292.865C2252.99 295.988 2249.29 298.466 2245.21 300.157C2241.13 301.847 2236.76 302.717 2232.34 302.717C2227.93 302.717 2223.56 301.847 2219.48 300.157C2215.4 298.466 2211.69 295.988 2208.57 292.865C2205.45 289.742 2202.97 286.034 2201.28 281.953C2199.59 277.872 2198.72 273.498 2198.72 269.081Z" fill="#008850"/>
<path d="M2335.09 139.694L2335.09 337.432C2335.09 356.458 2319.68 371.877 2300.66 371.877C2281.64 371.877 2266.23 356.458 2266.23 337.432V139.694C2266.23 120.668 2281.64 105.249 2300.66 105.249C2319.68 105.249 2335.09 120.668 2335.09 139.694Z" fill="#008850"/>
<path d="M2198.65 139.694L2198.65 268.543C2198.65 287.568 2183.24 302.988 2164.22 302.988C2145.21 302.988 2129.8 287.568 2129.8 268.543V139.694C2129.8 120.668 2145.21 105.249 2164.22 105.249C2183.24 105.249 2198.65 120.668 2198.65 139.694Z" fill="#008850"/>
<path fill-rule="evenodd" clip-rule="evenodd" d="M1716.16 208.045H1785.09C1785.09 194.571 1782.43 181.23 1777.28 168.782C1772.13 156.335 1764.57 145.025 1755.05 135.498C1745.53 125.97 1734.22 118.413 1721.78 113.257C1709.34 108.101 1696.01 105.448 1682.54 105.448C1669.07 105.448 1655.74 108.101 1643.3 113.257C1630.86 118.413 1619.55 125.97 1610.03 135.498C1600.51 145.025 1592.95 156.335 1587.8 168.782C1582.65 181.23 1579.99 194.571 1579.99 208.045H1648.92C1648.92 203.628 1649.79 199.254 1651.48 195.173C1653.17 191.092 1655.65 187.384 1658.77 184.261C1661.89 181.138 1665.6 178.66 1669.67 176.969C1673.75 175.279 1678.13 174.409 1682.54 174.409C1686.95 174.409 1691.33 175.279 1695.41 176.969C1699.48 178.66 1703.19 181.138 1706.31 184.261C1709.43 187.384 1711.91 191.092 1713.6 195.173C1715.29 199.254 1716.16 203.628 1716.16 208.045Z" fill="#008850"/>
<path d="M1716.23 337.432L1716.23 208.583C1716.23 189.558 1731.64 174.138 1750.66 174.138C1769.68 174.138 1785.09 189.558 1785.09 208.583V337.432C1785.09 356.458 1769.68 371.877 1750.66 371.877C1731.64 371.877 1716.23 356.458 1716.23 337.432Z" fill="#008850"/>
<rect x="1580" y="3.00049" width="68" height="369" rx="34" fill="#008850"/>
<path d="M206.935 153.438H329.798C350.928 153.438 368.052 170.57 368.052 191.71V191.885C368.052 213.025 350.928 230.157 329.798 230.157H206.935C185.806 230.157 168.682 213.025 168.682 191.885V191.71C168.682 170.57 185.806 153.438 206.935 153.438Z" fill="#008850"/>
<path fill-rule="evenodd" clip-rule="evenodd" d="M260.802 109.382L315.925 55.714C286.563 25.5264 247.743 6.32387 205.941 1.30958C164.139 -3.70471 121.883 5.77243 86.2206 28.1601C50.558 50.5479 23.6464 84.4923 9.97425 124.332C-3.69788 164.171 -3.30363 207.495 11.0913 247.079C25.4861 286.663 53.0112 320.111 89.0749 341.846C125.139 363.58 167.561 372.286 209.265 366.511C250.968 360.736 289.432 340.829 318.24 310.112C347.047 279.394 364.457 239.723 367.565 197.716L290.859 192.035C289.051 216.486 278.917 239.577 262.149 257.456C245.382 275.336 222.993 286.923 198.719 290.284C174.446 293.645 149.753 288.578 128.762 275.927C107.771 263.277 91.7501 243.808 83.3714 220.768C74.9927 197.728 74.7631 172.51 82.7211 149.322C90.679 126.133 106.343 106.376 127.1 93.3446C147.858 80.3136 172.454 74.7973 196.785 77.7156C221.116 80.6344 243.711 91.8112 260.802 109.382Z" fill="#008850"/>
<path fill-rule="evenodd" clip-rule="evenodd" d="M290.724 192.136C290.724 170.764 308.04 153.438 329.401 153.438C350.763 153.438 368.079 170.764 368.079 192.136C368.079 213.508 350.763 230.833 329.401 230.833C308.04 230.833 290.724 213.508 290.724 192.136Z" fill="#008850"/>
<path fill-rule="evenodd" clip-rule="evenodd" d="M250.558 83.2419C250.558 61.9289 267.827 44.6512 289.129 44.6512C310.432 44.6512 327.701 61.9289 327.701 83.2419C327.701 104.555 310.432 121.833 289.129 121.833C267.827 121.833 250.558 104.555 250.558 83.2419Z" fill="#008850"/>
<path fill-rule="evenodd" clip-rule="evenodd" d="M1466.23 222.646L1527.61 207.629C1520.69 179.353 1504.69 154.123 1482.07 135.802C1459.45 117.481 1431.44 107.079 1402.35 106.188C1373.25 105.297 1344.66 113.966 1320.96 130.869C1297.26 147.771 1279.75 171.975 1271.12 199.776C1262.48 227.576 1263.2 257.44 1273.15 284.796C1283.1 312.153 1301.75 335.493 1326.23 351.245C1350.71 366.997 1379.68 374.292 1408.7 372.012C1437.72 369.733 1465.19 358.006 1486.92 338.625L1444.85 291.478C1433.44 301.66 1419 307.822 1403.75 309.02C1388.5 310.218 1373.28 306.385 1360.42 298.108C1347.55 289.832 1337.76 277.567 1332.53 263.193C1327.3 248.819 1326.92 233.127 1331.46 218.519C1336 203.912 1345.2 191.194 1357.65 182.313C1370.1 173.431 1385.13 168.876 1400.41 169.344C1415.7 169.812 1430.42 175.278 1442.3 184.904C1454.19 194.531 1462.6 207.788 1466.23 222.646Z" fill="#008850"/>
<path d="M1402.14 205.301L1491.8 187.862C1508.57 184.6 1524.81 195.55 1528.07 212.324C1531.33 229.098 1520.38 245.335 1503.61 248.598L1413.95 266.036C1397.18 269.299 1380.94 258.349 1377.68 241.575C1374.42 224.801 1385.37 208.563 1402.14 205.301Z" fill="#008850"/>
<path d="M1346.37 35.3452L1436.02 17.9071C1452.8 14.6445 1469.04 25.5943 1472.3 42.3682C1475.56 59.1422 1464.61 75.38 1447.84 78.6426L1358.18 96.0807C1341.41 99.3433 1325.17 88.3935 1321.91 71.6195C1318.64 54.8456 1329.59 38.6078 1346.37 35.3452Z" fill="#FCD20F"/>
<path fill-rule="evenodd" clip-rule="evenodd" d="M1466.05 218.016C1466.05 200.586 1480.18 186.457 1497.61 186.457C1515.04 186.457 1529.17 200.586 1529.17 218.016C1529.17 235.445 1515.04 249.574 1497.61 249.574C1480.18 249.574 1466.05 235.445 1466.05 218.016Z" fill="#008850"/>
<path fill-rule="evenodd" clip-rule="evenodd" d="M1434.17 314.923C1434.17 297.494 1448.3 283.365 1465.73 283.365C1483.16 283.365 1497.29 297.494 1497.29 314.923C1497.29 332.353 1483.16 346.482 1465.73 346.482C1448.3 346.482 1434.17 332.353 1434.17 314.923Z" fill="#008850"/>
<path d="M1951.36 103.036C1955.63 102.896 1955.35 103.216 1956.55 103.231C1956.83 103.238 1957.11 103.243 1957.37 103.246C1960.19 103.28 1962.03 103.076 1964.2 103.201C1975.81 103.903 1986.59 105.863 1997.45 109.294C2008.56 113.075 2002.99 112.165 2006.72 113.747C2013.87 117.105 2008.08 113.537 2011.05 114.519C2019.4 118.184 2027.41 122.784 2034.82 128.096C2032.93 126.906 2031.03 125.764 2029.07 124.651C2032.43 126.769 2036.97 130.146 2031.33 126.669C2032.51 127.537 2033.59 128.38 2034.77 129.306C2035.36 129.183 2040.98 133.35 2041.6 133.604C2042.25 133.81 2039.16 131.451 2039.14 131.429C2039.68 131.187 2051.72 142.048 2052.35 143.065C2054.47 145.306 2052.22 143.735 2054.07 145.58C2057.2 148.801 2055.95 145.919 2058.99 151.351C2060.89 152.905 2060.87 153.21 2062.76 155.615C2063.01 155.933 2063.01 155.533 2063.13 155.668C2066.13 159.22 2063.57 156.683 2063.57 156.719C2063.51 157.304 2066.63 161.16 2067.18 162.055C2074.21 173.14 2078.41 181.823 2083.02 194.77C2084.07 197.545 2086.78 206.213 2087.27 209.043C2087.83 211.827 2087.19 210.409 2087.36 211.889C2088.56 214.053 2089.13 216.306 2089.37 221.652C2090.15 223.552 2089.72 223.366 2090.2 227.138C2090.59 230.277 2091.51 235.797 2090.93 239.324C2090.95 235.295 2090.71 235.725 2090.31 231.237C2090.41 229.711 2088.32 214.232 2087.8 215.506C2087.65 216.148 2088.71 221.193 2088.66 221.401C2088.5 222.581 2087.77 219.812 2087.47 217.278C2087.64 217.892 2087.82 218.639 2087.98 219.303C2087.44 213.588 2086.64 217.731 2087.12 213.233C2087.17 212.676 2087.38 212.849 2087.36 211.942C2087.26 211.777 2087.31 212.878 2087.09 211.966C2086.86 211.037 2086.78 209.196 2086.45 208.997C2085.97 208.695 2086.98 212.51 2087.01 212.811C2087.01 212.814 2087.01 212.816 2087.02 212.819C2087.33 215.425 2086.21 210.073 2086.09 209.829C2085.46 208.241 2085.54 209.398 2084.73 207.002C2084.28 205.631 2083.36 202.076 2082.91 200.802C2082.48 199.533 2082.91 201.58 2082.61 200.732C2082.3 199.883 2082.1 198.763 2081.72 197.772C2081.55 197.348 2081.36 197.438 2081.28 197.233C2080.43 195.039 2081.36 196.347 2080.62 194.348C2080.14 193.038 2078.04 188.885 2079.1 191.899C2078.5 190.485 2077.91 189.12 2077.27 187.73C2077.6 188.641 2077.94 189.57 2078.22 190.466C2077.23 187.78 2076.36 186.734 2075.6 185.12C2074.82 183.508 2074.52 181.863 2073.43 180.198C2071.12 176.653 2076 185.854 2076.35 187.119C2076.53 187.591 2075.43 185.965 2075.3 185.701C2074.71 184.519 2074.26 183.009 2073.8 182.097C2072.14 178.847 2070.79 177.041 2069 174.081C2062.94 163.95 2053.53 152.644 2045.27 145.176C2042.22 142.374 2040.52 140.507 2039.08 139.328C2035.66 136.609 2035.03 136.547 2031.95 134.338C2027.37 131.044 2020.66 126.714 2016.46 124.534C2013.57 122.991 2010.75 122.049 2009.97 121.711C1999.19 116.862 1985.23 113.141 1975.54 111.897C1970.99 111.27 1968.83 110.791 1967.89 110.714C1963.8 110.462 1964.87 110.831 1961.58 110.668C1959.79 110.598 1959.46 110.32 1959.22 110.303C1958.41 110.257 1957.85 110.286 1957.37 110.339C1956.6 110.427 1956.05 110.575 1955.03 110.6C1945.58 110.846 1936.47 111.753 1927.34 113.886C1926.68 114.042 1926.7 113.87 1926.27 113.983C1924.45 114.483 1925.36 114.512 1923.46 115.041C1919.51 116.157 1915.48 117.414 1911.4 118.937C1911 119.089 1910.74 118.961 1909.82 119.324C1908.9 119.69 1908.28 120.153 1906.85 120.75C1903.11 122.316 1899.39 123.84 1895.61 125.887C1894.98 126.228 1894.34 126.876 1893.41 127.403C1890.5 129.038 1886.19 131.512 1883.84 133.16C1876.04 138.552 1869.52 144.444 1863.4 150.926C1861.97 152.45 1860.56 153.684 1859.84 154.505C1858.22 156.363 1859.59 155.094 1857.99 157.003C1845.01 172.647 1835.62 191.434 1831.24 211.565C1829.47 219.462 1828.59 229.299 1828.44 237.098C1828.42 238.018 1828.39 238.728 1828.35 239.324C1828.25 240.833 1828.1 241.609 1828.15 243.258C1828.3 247.34 1828.73 248.099 1829.17 252.368C1829.54 255.803 1829.71 259.76 1830.4 263.295C1831.1 266.806 1831.83 268.362 1832.9 272.32C1833.79 275.59 1835.03 280.162 1836.33 283.609C1848.19 315.317 1872.4 341.501 1903.11 356.097C1913.93 361.298 1926.8 365.122 1939.06 367.196C1940.21 367.386 1938.38 367.535 1942.12 367.922C1944.15 368.109 1946.95 368.11 1951.61 368.308C1953.51 368.385 1955.43 368.425 1957.37 368.425C1983.32 368.612 2010.86 360.57 2032.19 345.112C2067.49 320.314 2084.62 276.858 2087.94 240.337C2088.14 238.513 2089.06 239.498 2089.32 240.607C2089.12 241.629 2088.88 242.566 2088.63 243.62C2089.72 244.996 2089.5 244.753 2089.05 249.729C2088.73 252.777 2089.43 250.381 2089.42 252.024C2089.51 254.171 2088.53 264.179 2088.05 262.141C2088.08 262.775 2088.1 263.362 2088.11 263.98C2086.89 271.141 2085.2 278.018 2082.98 284.8C2082.59 285.968 2082.8 286.11 2082.38 287.315C2081.24 290.549 2080.03 292.997 2078.56 296.2C2077.75 297.932 2077.88 298.303 2076.73 300.537C2075.55 302.759 2075.26 302.533 2073.93 305.721C2075.48 304.028 2070.15 312.484 2068.07 315.358C2067.79 315.792 2065.69 319.488 2064.26 321.237C2062.85 323.005 2060.5 325.504 2058.3 328.217C2057.28 329.489 2056.85 330.448 2055.65 331.753C2054.81 332.669 2053.56 333.542 2052.44 334.643C2051.33 335.753 2049.01 338.265 2048.55 338.684C2046.89 340.213 2048.6 338.391 2047.45 339.417C2041.91 344.378 2034.94 349.493 2028.79 353.477C2028.04 353.969 2029.22 353.513 2029.12 353.583C2024.06 357.045 2026.67 355.054 2025.15 355.718C2023.72 356.467 2013.37 361.856 2013.4 362.176C2012.85 361.853 2010.64 363.274 2010.02 363.547C2007.61 364.617 2007.92 364.001 2005.59 365.058C2004.74 365.441 2006.55 365.076 2005.61 365.428C2003.26 366.297 2001 366.585 1997.83 367.539C1997.07 367.766 1996.89 368.056 1995.53 368.453C1994.17 368.883 1988.33 370.102 1991.1 369.869C1987.52 370.383 1986.85 370.76 1982.73 371.562C1981.68 371.756 1980.27 371.66 1978.05 372.117C1977.3 372.269 1977.38 372.605 1976.24 372.77C1973.63 373.139 1971.1 373.078 1967.78 373.323C1964.4 373.568 1960.93 373.771 1957.37 373.821C1954.35 373.863 1951.36 373.795 1948.36 373.555C1946.59 373.405 1947.05 373.107 1944.5 372.869C1944.14 372.841 1941 372.811 1939.25 372.536C1938.19 372.407 1932.73 371.301 1931.65 371.043C1929.85 370.662 1929.46 370.909 1928.48 370.631C1925.66 369.8 1928.06 369.867 1924.48 369.684C1923.45 369.047 1921.45 368.542 1920.94 367.921C1919.65 368.075 1918.31 367.187 1916.05 366.631C1913.8 366.078 1911.67 366.338 1911.5 365.165C1910.43 364.933 1906.05 363.436 1905.33 363.13C1903.2 362.268 1904.44 362.488 1902.84 361.825C1902.56 361.705 1902.76 362.025 1900.99 361.188C1899.79 360.716 1891.43 356.348 1890.99 355.973C1885.6 352.481 1894.11 357.577 1895.47 357.954C1895.66 358.117 1895.85 358.279 1896.06 358.448C1898.54 359.816 1897.3 358.689 1896.21 358.012C1895.12 357.339 1892.92 356.375 1892.07 355.72C1891.64 355.394 1892.19 355.098 1893.56 355.924C1892.14 354.955 1894.26 355.929 1893.75 355.467C1893.15 355.01 1886.62 351.059 1886.46 351.241C1887.66 352.017 1889.18 352.936 1890.42 353.675C1891.82 355.075 1885.86 353.711 1881.84 350.087C1878.98 347.448 1884.34 350.861 1876.75 345.825C1877.85 346.688 1878.78 347.426 1879.8 348.184C1879.69 348.575 1878.26 347.026 1877.34 346.484C1876.89 346.227 1879.26 348.328 1877.01 346.764C1875.45 344.902 1873.67 344.247 1870.63 341.694C1871.53 342.332 1872.45 342.959 1873.36 343.573C1868.46 339.046 1880.5 348.738 1870.66 340.342C1871.85 341.342 1873.04 342.334 1874.28 343.289C1873.81 342.659 1875.12 342.952 1874.68 342.433C1873.51 341.076 1871.38 339.554 1869.79 338.1C1869.1 337.466 1869.64 337.734 1869.58 337.681C1868.63 336.808 1868.69 337.172 1867.84 336.418C1866.77 335.478 1863.99 332.442 1863.51 331.976C1862.26 330.794 1863.94 333.163 1863.81 333.07C1862.86 332.452 1861.43 330.697 1861.3 330.983C1865.07 334.897 1876.75 345.385 1865.84 336.262C1868.41 339.266 1867.09 339.052 1862.97 335.122C1859.61 331.82 1861.94 333.789 1860.44 331.837C1860.22 331.606 1856.11 326.866 1855.77 326.731C1856.29 326.615 1855.29 324.803 1856.54 325.525C1856.71 325.634 1858.37 327.569 1858.08 326.645C1857.93 326.184 1857.42 324.946 1857.74 324.938C1857.27 324.657 1856.77 324.368 1856.3 324.078C1853.83 321.185 1853.66 320.621 1852.65 318.784C1852.6 318.941 1853.31 320.813 1851.69 318.383C1851.61 318.256 1851.69 318.035 1850.89 316.782C1849.31 314.239 1849.03 313.691 1850.82 315.214C1847.02 310.355 1846.85 308.87 1843.53 303.526C1843.5 304.984 1844.7 306.88 1848 311.639C1847.99 311.949 1847.91 312.147 1847.9 312.465C1844.04 305.753 1846.08 308.993 1843.5 305.428C1842.85 304.562 1840.22 299.476 1840.68 301.4C1840.77 301.861 1842.52 304.978 1842.16 304.712C1842.07 304.656 1839.9 300.897 1839.79 300.525C1838.21 295.943 1842.19 303.516 1836.46 291.658C1836.31 291.327 1836.05 291.297 1835.75 290.654C1835.18 289.446 1835.41 289.332 1834.91 288.25C1834.41 287.168 1833.49 285.737 1833.18 283.94C1832.63 280.668 1835.51 287.814 1836.64 291.054C1837.43 292.18 1829.64 269.095 1829.81 267.479C1828.16 261.071 1830.61 271.798 1830.64 272.369C1830.62 272.615 1829.48 272.808 1830.94 275.307C1831.37 276.04 1830.72 272.644 1831.39 274.592C1832.06 276.535 1831.52 275.845 1831.54 275.995C1831.6 276.512 1832.36 278.559 1832.4 278.847C1833.09 283.232 1831.87 283.2 1831.67 277.166C1830.6 274.848 1831.73 280.578 1830.58 277.635C1829.18 274.036 1829.03 271.155 1828.93 270.689C1827.91 264.988 1828.59 271.677 1827.38 264.692C1826.78 260.806 1828.95 270.372 1827.27 261.564C1826.07 254.147 1826.45 258.186 1825.77 257.733C1825.61 257.624 1824.88 253.54 1825.71 259.122C1825.89 259.256 1826.14 259.521 1826.34 259.854C1826.43 261.24 1826.07 263.653 1826.18 264.384C1826.75 267.942 1827.13 267.693 1827.14 269.873C1827.31 268.275 1827.55 270.756 1827.89 271.627C1829.16 274.85 1828.06 270.474 1829.69 278.036C1829.63 277.003 1829.61 276.063 1829.59 275.063C1829.84 275.949 1830.11 276.832 1830.38 277.711C1830.24 279.18 1831.86 283.855 1829.96 279.771C1831.46 284.942 1832.42 286.911 1833.22 287.857C1833.38 288.036 1833.7 288.773 1834.07 289.644C1834.11 289.434 1834.36 289.087 1834.46 289.207C1835.31 290.283 1835.51 292.437 1834.99 291.895C1835.24 292.508 1835.44 292.994 1835.51 293.166C1835.95 294.254 1834.8 292.245 1835.12 293.148C1835.21 293.454 1836.63 296.428 1836.59 296.53C1836.25 297.135 1834.13 292.084 1838.77 302.044C1839.36 302.026 1836.95 297.55 1838.07 298.45C1839.25 299.418 1839.82 302.325 1840.81 302.499C1840.81 302.762 1840.76 302.904 1840.73 303.148C1843.17 306.831 1842.68 307.176 1843.25 308.413C1844.29 310.863 1851.14 320.782 1845.56 311.504C1846.47 312.798 1847.39 314.119 1848.33 315.379C1847.62 316.317 1847.31 315.361 1851.77 321.518C1852.78 322.859 1852.73 323.61 1854.24 324.495C1853.62 324.715 1857.12 328.263 1857.39 328.638C1859 331.218 1851.22 323.245 1851.27 321.399C1849.81 320.169 1850.24 319.846 1848.96 318.215C1847.12 315.84 1846.78 315.549 1845.15 312.358C1842.64 309.79 1852.8 323.81 1846.15 315.646C1838.1 309.408 1818.53 260.241 1821.26 239.324C1821.24 237.288 1821.28 235.581 1821.31 234.271C1822.7 208.209 1826.96 194.388 1837.78 173.576C1838.64 171.38 1848.38 156.791 1846.91 160.223C1846.65 160.692 1842.65 167.007 1846.69 162.008C1845.69 162.901 1847.7 159.71 1847.88 159.438C1851.72 153.23 1848.82 156.282 1856.37 147.597C1879.44 121.504 1916.33 103.913 1951.36 103.036ZM1926.87 369.196C1924.96 368.398 1922.49 368.286 1923.89 368.928C1924.89 369.393 1927.12 369.306 1926.87 369.196ZM1864.28 330.063C1864.4 330.632 1864.42 331.1 1864.53 331.647L1864.89 332.013C1866.54 333.623 1865.19 331.753 1865.78 332.075C1866.4 332.422 1868.31 334.46 1868.27 334.025C1866.94 332.756 1865.58 331.404 1864.28 330.063ZM1851.99 320.596C1852.81 321.589 1853.66 322.569 1854.51 323.535C1853.82 322.787 1853.13 322.028 1852.45 321.255C1853.89 323.202 1854.32 324.295 1852.54 322.28C1852.54 322.278 1852.54 322.276 1852.54 322.274C1852.36 321.729 1852.18 321.172 1851.99 320.596ZM1852.42 315.86C1852.2 316.171 1851.86 316.323 1851.64 316.648C1852.42 317.874 1855.8 322.549 1856.48 323.009C1858.59 324.692 1848.3 312.225 1856.11 321.241C1856.14 321.14 1856.25 321.125 1856.32 321.067C1854.98 319.365 1853.69 317.634 1852.42 315.86ZM1847.7 309.131C1847.66 309.526 1847.61 309.902 1847.61 310.343C1848.69 311.674 1850.1 313.764 1850.24 313.439C1850.67 314.153 1851.1 314.871 1851.54 315.578C1851.61 315.518 1851.67 315.451 1851.74 315.392C1850.33 313.341 1848.99 311.257 1847.7 309.131ZM2030.93 238.056C2030.93 238.581 2030.9 238.985 2030.86 239.324C2030.76 240.182 2030.59 240.617 2030.57 241.549C2030.48 243.856 2030.85 244.324 2030.66 246.773C2030.49 248.748 2029.79 250.915 2029.43 252.922C2029.07 254.919 2029.24 255.936 2028.7 258.227C2028.24 260.121 2027.27 262.659 2026.57 264.642C2020.2 282.913 2006.32 298.301 1988.47 306.245C1982.22 309.072 1974.83 311.349 1967.77 311.946C1967.11 311.998 1968.06 311.512 1965.97 311.849C1964.84 312.02 1963.29 312.516 1960.65 312.654C1959.57 312.708 1958.47 312.734 1957.37 312.734C1944.42 312.807 1931.12 308.665 1919.92 301.936L1924.94 299.037C1926.71 299.971 1929.19 301.057 1929.35 300.774C1929.3 301.33 1930.66 301.496 1930.98 301.61C1932.22 302.063 1931.81 302.388 1933.06 302.724C1933.52 302.845 1932.77 302.229 1933.24 302.419C1934.4 302.883 1935.28 303.729 1936.87 304.285C1937.26 304.418 1937.44 304.247 1938.13 304.458C1938.8 304.685 1941.65 305.693 1940.43 304.898C1942.09 305.699 1942.51 305.593 1944.58 306.011C1945.11 306.114 1945.73 306.591 1946.88 306.66C1947.27 306.681 1947.31 306.342 1947.88 306.421C1949.19 306.595 1950.41 307.093 1952.09 307.239C1953.81 307.385 1955.57 307.389 1957.37 307.339C1958.9 307.297 1960.41 307.217 1961.93 307.157C1962.83 307.118 1962.63 307.483 1963.93 307.372C1964.12 307.357 1965.67 306.896 1966.56 306.798C1967.09 306.759 1969.91 306.508 1970.47 306.401C1971.4 306.247 1971.5 305.882 1972.01 305.838C1973.5 305.692 1972.46 306.442 1974.04 305.369C1974.7 305.588 1975.71 305.276 1976.15 305.622C1976.61 304.972 1977.5 305.215 1978.59 304.687C1979.68 304.158 1980.25 302.917 1980.88 303.8C1981.36 303.501 1983.47 302.436 1983.82 302.257C1984.88 301.758 1984.42 302.269 1985.22 301.877C1985.36 301.806 1985.13 301.697 1986.04 301.298C1986.66 301.077 1990.92 298.873 1991.17 298.715C1994.15 297.337 1989.72 299.791 1989.17 300.272C1989.04 300.28 1988.9 300.287 1988.76 300.299C1987.42 300.873 1988.36 300.901 1988.99 300.69C1989.63 300.48 1990.62 299.717 1991.17 299.573C1991.45 299.502 1991.57 300.054 1990.8 300.402C1991.67 300.113 1990.68 300.857 1991.06 300.822C1991.5 300.809 1995.02 298.773 1994.86 298.49C1994.22 298.887 1993.42 299.386 1992.76 299.761C1991.66 299.806 1993.34 296.842 1995.94 295.892C1997.85 295.169 1995.44 297.42 1998.99 294.297C1998.4 294.718 1997.88 295.04 1997.33 295.404C1997.05 295.133 1998.16 294.855 1998.53 294.426C1998.7 294.224 1997.24 294.966 1998.31 294.059C1999.61 293.769 2000.01 292.766 2001.55 291.464C2001.19 291.901 2000.81 292.335 2000.44 292.765C2003.35 290.894 1997.23 296.076 2002.56 291.973C2001.96 292.515 2001.34 293.027 2000.72 293.557C2001.15 293.467 2001.03 294.324 2001.38 294.2C2002.32 293.868 2003.27 292.818 2004.15 292.077C2004.53 291.753 2004.41 292.075 2004.44 292.05C2004.96 291.603 2004.69 291.531 2005.13 291.112C2005.68 290.592 2007.41 289.22 2007.64 288.94C2008.23 288.239 2006.83 289.001 2006.87 288.914C2007.12 288.346 2008.08 287.619 2007.83 287.461C2006.05 289.746 1999.68 294.935 2004.87 289.633C2003.05 290.666 2003.09 289.801 2005.11 287.767C2006.76 286.052 2005.87 287.326 2006.94 286.631C2007.09 286.554 2009.35 284.264 2009.29 283.992C2009.56 284.397 2010.57 283.861 2010.47 284.715C2010.46 284.845 2009.55 285.837 2010.15 285.741C2010.46 285.694 2011.22 285.456 2011.34 285.7C2011.39 285.374 2011.43 285.025 2011.48 284.692C2012.74 283.095 2013.05 282.976 2013.99 282.284C2013.84 282.246 2012.78 282.717 2013.86 281.58C2013.91 281.521 2014.12 281.59 2014.67 281.007C2015.77 279.822 2016.02 279.565 2015.79 280.93C2017.43 277.978 2018.38 277.724 2019.96 274.623C2018.94 274.841 2018.55 275.997 2016.95 278.716C2016.72 278.73 2016.53 278.684 2016.3 278.698C2018.92 275.426 2017.77 277.117 2018.67 274.911C2018.9 274.375 2020.44 271.713 2019.5 272.374C2019.29 272.533 2018.38 274.195 2018.31 273.911C2018.31 273.86 2019.33 271.807 2019.46 271.64C2021.13 269.63 2019.59 273.972 2022.36 267.451C2022.43 267.269 2022.25 267.117 2022.37 266.755C2022.59 266.077 2022.84 266.165 2023.02 265.55C2023.2 264.933 2023.2 263.987 2023.82 263.196C2024.97 261.725 2023.89 265.791 2022.83 267.372C2023.47 268.491 2027.81 255.732 2027.61 254.824C2028.09 251.211 2026.99 257.156 2026.65 257.387C2026.53 257.49 2025.46 257.141 2025.77 258.788C2025.86 259.281 2026.64 257.546 2026.45 258.661C2026.26 259.778 2026.06 259.255 2026.02 259.328C2025.86 259.576 2025.64 260.746 2025.54 260.882C2024.11 262.915 2023.18 262.381 2025.64 259.876C2025.68 258.471 2024.23 261.279 2024.48 259.601C2024.78 257.576 2025.62 256.259 2025.71 256.012C2026.67 253.073 2025.18 256.37 2026.18 252.752C2026.7 250.722 2026.1 255.931 2026.92 251.212C2027.5 247.235 2026.89 249.346 2026.35 248.973C2026.22 248.883 2026.35 246.725 2026 249.645C2026.14 249.75 2026.32 249.935 2026.44 250.145C2026.21 250.855 2025.24 251.906 2025.14 252.27C2024.65 254.065 2025.05 254.073 2024.35 255.036C2025.03 254.389 2024.44 255.564 2024.43 256.053C2024.37 257.873 2025.15 255.68 2023.54 259.386C2023.93 258.959 2024.29 258.571 2024.66 258.144C2024.54 258.614 2024.41 259.083 2024.28 259.549C2023.57 260.091 2022.83 262.531 2023.03 260.168C2022.04 262.757 2021.71 263.819 2021.89 264.545C2021.92 264.682 2021.8 265.084 2021.62 265.542C2021.76 265.5 2022.14 265.527 2022.16 265.616C2022.26 266.414 2021.2 267.146 2021.11 266.705C2020.96 267.016 2020.84 267.26 2020.8 267.345C2020.51 267.884 2020.78 266.7 2020.51 267.119C2020.42 267.262 2019.76 268.83 2019.65 268.819C2018.99 268.73 2020.67 266.446 2017.83 271.29C2018.26 271.676 2019.34 269.283 2019.56 270.145C2019.81 271.088 2018.36 272.011 2018.89 272.663C2018.72 272.708 2018.6 272.705 2018.42 272.726C2017.59 274.911 2016.99 274.599 2016.51 275.125C2015.62 276.167 2012.12 281.337 2015.72 276.994C2015.32 277.716 2014.88 278.429 2014.45 279.13C2013.37 278.607 2014.1 278.519 2011.59 281.524C2011.03 282.179 2010.46 282.072 2010.39 283.107C2010.01 282.647 2008.64 284.805 2008.42 284.927C2007.1 285.742 2010.24 281.127 2011.46 281.164C2011.72 280.162 2012.15 280.493 2012.72 279.594C2013.53 278.288 2013.57 278.062 2014.9 276.761C2015.46 274.999 2010.71 282.362 2013.15 277.594C2016.13 274.079 2024.01 253.071 2023.95 241.874L2030.93 237.848C2030.93 237.918 2030.93 237.987 2030.93 238.056ZM1974.56 305.839C1973.98 305.794 1973.04 306.628 1973.19 306.642C1974.3 306.74 1975.38 305.901 1974.56 305.839ZM1989.81 300.22C1989.17 300.427 1989.03 300.408 1989.17 300.272C1989.38 300.26 1989.58 300.245 1989.81 300.22ZM1838.06 291.953C1838.29 292.389 1838.54 292.851 1838.76 293.272C1838.68 294.144 1836.7 289.842 1837.58 292.843C1837.58 292.846 1837.58 292.849 1837.58 292.851C1838.38 295.464 1838.84 294.973 1840.17 298.321C1840.4 297.715 1840.59 297.072 1840.81 296.454C1839.57 294.05 1839.14 293.57 1838.07 290.825C1838.06 291.2 1838.06 291.584 1838.06 291.953ZM2008.13 289.791C2006.89 290.981 2008.2 290.26 2008.08 290.668C2007.95 291.081 2006.72 292.032 2007.04 292.114C2007.8 291.42 2008.57 290.678 2009.3 289.942C2008.89 289.92 2008.53 289.832 2008.13 289.794L2008.13 289.791ZM1835.6 285.612C1835.03 284.862 1836.35 288.845 1836.94 289.597C1837.86 290.823 1836.42 286.763 1835.6 285.612ZM2015.11 281.552C2014.61 282.17 2012.49 284.487 2012.35 284.929C2011.98 286.518 2017.15 279.228 2013.56 284.776C2013.65 284.811 2013.7 284.893 2013.77 284.951C2014.56 284.033 2015.32 283.093 2016.06 282.126C2015.72 281.961 2015.45 281.712 2015.11 281.552ZM2012.36 281.728C2011.99 282.291 2011.6 282.851 2011.21 283.404C2011.5 282.951 2011.79 282.496 2012.07 282.035C2011.23 282.986 2010.59 283.194 2011.35 282.041L2011.36 282.039C2011.69 281.947 2012.02 281.844 2012.36 281.728ZM2018.56 278.275C2018.26 278.29 2017.97 278.292 2017.65 278.329C2017.31 279.221 2016.49 280.352 2016.8 280.441C2016.49 280.784 2016.17 281.129 2015.86 281.464C2015.93 281.514 2016.01 281.562 2016.09 281.611C2016.94 280.523 2017.77 279.412 2018.56 278.275ZM2023.14 269.241C2022.59 269.443 2023.58 267.05 2022.52 268.431C2022.52 268.433 2022.52 268.435 2022.52 268.436C2021.59 269.623 2022.23 269.777 2021.1 271.404C2021.63 271.403 2022.16 271.369 2022.7 271.344C2023.3 269.948 2023.28 269.566 2024.04 268.105C2023.83 268.221 2023.61 268.339 2023.39 268.447C2023.31 268.709 2023.23 268.989 2023.14 269.241ZM2024.94 265.008C2024.89 264.461 2023.86 266.533 2023.87 267.086C2023.9 267.995 2025.04 265.86 2024.94 265.008ZM1825.2 241.996C1824.98 240.585 1824.16 244.641 1824.1 245.947C1824.1 245.944 1824.1 245.94 1824.1 245.937C1823.95 248.502 1824.12 250.844 1824.47 253.964C1824.59 251.107 1824.82 252.95 1825.03 253.887C1825.33 255.298 1824.95 251.861 1824.99 251.824C1825.39 251.851 1825.62 254.049 1825.2 249.033C1825.42 250.267 1825.67 251.476 1825.93 252.693C1825.58 248.894 1825.8 247.955 1825.99 245.525C1825.35 247.903 1825.63 244.806 1825.2 241.996ZM2027.68 240.745C2027.5 239.998 2026.55 242.101 2026.37 242.754L2026.25 243.234C2026 244.36 2025.92 245.453 2025.78 246.862C2026.34 245.453 2026.29 246.407 2026.34 246.915C2026.41 247.673 2026.59 245.887 2026.62 245.863C2027 245.93 2026.97 247.103 2027.18 244.452C2027.26 245.118 2027.34 245.778 2027.41 246.447C2027.62 244.426 2027.9 243.956 2028.28 242.669C2027.45 243.889 2028.03 242.257 2027.68 240.745ZM1958.71 165.568C1964.13 165.599 1969.31 166.499 1974.5 167.769C1974.88 167.862 1974.8 168.013 1975.05 168.065C1976.1 168.289 1975.68 167.913 1976.78 168.187C1979.06 168.766 1981.35 169.552 1983.67 170.471C1983.89 170.563 1983.92 170.798 1984.45 171.005C1984.97 171.213 1985.44 171.187 1986.25 171.545C1988.38 172.484 1990.33 173.69 1992.47 174.87C1992.82 175.065 1993.39 175.087 1993.92 175.392C1994.39 175.662 1994.91 175.994 1995.44 176.352L1987.79 180.769C1979.18 176.334 1969.6 173.66 1960.29 173.294C1958.22 173.197 1958.36 172.953 1957.77 172.908C1957.64 172.899 1957.5 172.893 1957.37 172.89C1955.99 172.863 1955.11 173.155 1954.05 173.184C1948.39 173.36 1943.13 174.245 1937.78 175.775C1932.31 177.474 1934.6 175.863 1932.64 176.367C1928.82 177.498 1932.35 177.22 1931.02 178.043C1926.88 179.751 1922.86 181.858 1919.09 184.339C1919.94 183.625 1920.8 182.934 1921.7 182.261C1920.02 183.283 1917.59 184.77 1920.18 182.671C1919.53 183.009 1918.9 183.32 1918.24 183.694C1918.28 184.122 1915.5 186.248 1915.41 186.649C1915.3 187.025 1916.81 185.778 1916.82 185.806C1916.81 186.039 1910.48 190.947 1910.11 191.43C1908.97 192.453 1909.57 191.15 1908.67 192.111C1907.15 193.798 1908.91 193.337 1905.88 194.748C1905.41 195.957 1905.17 195.888 1904.18 197.076C1904.05 197.232 1904.34 197.265 1904.29 197.339C1903.01 199.286 1903.73 197.601 1903.71 197.585C1903.23 197.483 1901.87 199.623 1901.54 200.04C1897.34 205.235 1894.66 209.515 1892.1 216.179C1891.52 217.614 1890.37 222.181 1890 223.619C1889.61 225.038 1889.48 224.202 1889.17 224.929C1889.65 226.3 1889.49 227.438 1888.63 230.119C1889.03 231.211 1888.6 231.029 1888.52 233.005C1888.46 234.301 1888.76 236.329 1888.64 238.016L1888.41 238.144C1888.36 237.198 1888.2 236.892 1888.17 235.113C1888.04 234.313 1889.11 226.254 1888.55 226.756C1888.2 227.02 1888.04 229.755 1887.98 229.851C1887.6 230.417 1887.41 228.859 1887.77 227.531C1887.78 227.875 1887.78 228.289 1887.78 228.658C1888.66 225.721 1886.84 227.509 1888.54 225.483C1888.76 225.236 1888.9 225.377 1889.16 224.954C1889.11 224.845 1888.82 225.371 1888.89 224.88C1888.96 224.378 1889.5 223.521 1889.26 223.32C1888.91 223.017 1888.61 225.096 1888.56 225.251C1888.56 225.253 1888.57 225.255 1888.57 225.257C1888.08 226.578 1888.64 223.724 1888.65 223.576C1888.61 222.639 1888.27 223.194 1888.4 221.821C1888.47 221.033 1889.07 219.131 1889.26 218.423C1889.43 217.716 1888.92 218.741 1889.02 218.261C1889.13 217.779 1889.45 217.236 1889.59 216.673C1889.65 216.433 1889.44 216.375 1889.47 216.259C1889.82 215.015 1889.96 215.957 1890.32 214.856C1890.55 214.141 1891.11 211.627 1890.35 213.213C1890.62 212.409 1890.9 211.638 1891.2 210.85C1890.94 211.314 1890.68 211.802 1890.42 212.255C1891.11 210.829 1891.08 210.024 1891.47 209.103C1891.86 208.183 1892.64 207.57 1892.95 206.499C1893.6 204.197 1891.17 209.483 1890.86 210.137C1890.72 210.381 1890.84 209.256 1890.9 209.096C1891.17 208.4 1891.77 207.714 1892.02 207.196C1892.89 205.345 1893.2 204.087 1894.13 202.356C1897.26 196.443 1902.41 189.798 1907.07 185.443C1908.79 183.806 1910.13 183.176 1910.94 182.496C1912.85 180.923 1912.91 180.49 1914.66 179.203C1917.27 177.279 1921.33 175.175 1923.75 174.022C1925.42 173.204 1926.83 172.23 1927.27 172.024C1933.38 169.088 1941.41 166.957 1946.96 166.239C1949.57 165.876 1950.86 166.142 1951.39 166.083C1953.71 165.872 1953.08 165.62 1954.97 165.573C1955.99 165.558 1956.19 165.843 1956.32 165.852C1956.78 165.881 1957.1 165.849 1957.37 165.796C1957.81 165.709 1958.13 165.566 1958.71 165.568ZM1889.28 214.277C1889.28 214.278 1889.28 214.279 1889.28 214.28C1889.28 214.278 1889.28 214.275 1889.28 214.273C1889.28 214.274 1889.28 214.276 1889.28 214.277ZM1890.67 210.789C1890.17 211.936 1889.71 213.09 1889.28 214.273C1889.27 213.935 1889.26 213.6 1889.26 213.237C1889.68 212.258 1890.11 211.299 1890.57 210.339C1890.6 210.491 1890.64 210.638 1890.67 210.789ZM2079.39 194.439C2079.4 194.441 2079.4 194.443 2079.4 194.445C2079.39 194.441 2079.39 194.438 2079.39 194.434C2079.39 194.436 2079.39 194.437 2079.39 194.439ZM2076.91 188.194C2077.78 190.253 2078.6 192.324 2079.39 194.434C2079.08 193.953 2078.76 193.481 2078.43 192.963C2077.79 191.183 2077.12 189.436 2076.4 187.683C2076.57 187.855 2076.74 188.021 2076.91 188.194ZM1840.4 179.749C1841.26 178.017 1841.92 175.655 1840.6 178.039C1840.01 179.106 1840.64 178.563 1840.23 179.554C1839.81 180.541 1837.99 183.726 1838.21 183.733C1838.4 183.714 1841.76 177.925 1838.95 184.005C1839.14 183.845 1839.18 183.946 1839.31 183.889C1840.09 182.233 1840.93 180.568 1841.78 178.945C1841.04 179.695 1840.29 180.474 1839.59 181.218C1839.83 180.182 1840.37 179.801 1840.4 179.75L1840.4 179.749ZM1928.53 173.433C1936.29 169.363 1924.26 174.66 1923.2 175.722C1922.67 176.104 1923.69 175.921 1923.41 176.238C1922.78 176.957 1921.48 177.771 1921.84 178.112C1922.59 178.82 1923.99 177.279 1925.28 176.807C1925.26 177.064 1925.3 177.276 1925.17 177.585C1925.39 177.13 1922.37 178.615 1922.3 178.745L1922.3 178.747C1921.21 180.291 1924.4 179.326 1927.26 177.528C1927.5 177.364 1925.44 178.128 1925.95 177.704C1926 177.658 1927.09 177.136 1927.31 176.912C1927.53 176.686 1927.14 176.596 1927.54 176.291C1928.24 175.748 1930.17 175.267 1930.68 174.806C1930.75 174.741 1929.5 174.908 1929.42 174.93C1928.18 175.246 1927.28 176.162 1927.11 176.248C1926.22 176.694 1926.21 176.327 1925.94 176.367C1925.45 176.444 1924.77 176.966 1924.71 176.984C1923.23 177.423 1926.34 175.891 1926.73 175.593C1927.73 174.757 1926.51 174.946 1929.25 173.536C1929.51 173.402 1932.75 172.072 1928.53 173.433ZM1987.94 176.754C1992.1 177.375 1983.23 173.781 1984.53 174.802C1984.66 174.857 1988.49 176.327 1987.94 176.754ZM1849.34 166.739C1849.16 166.742 1848.99 166.704 1848.77 166.771C1848.77 166.769 1848.77 166.767 1848.77 166.765C1847.39 168.529 1842.33 177.85 1844.43 175.073C1845.02 174.249 1846.94 169.897 1847.96 168.411C1848.62 167.447 1848.17 168.711 1849.34 166.739ZM1931.17 175.444C1932.91 174.93 1934.22 173.635 1931.8 174.429C1930.62 174.833 1930.1 175.769 1931.17 175.444ZM1924.82 175.361C1923.6 175.216 1929.97 172.312 1925.99 175.193C1927.02 174.339 1924.94 175.362 1924.82 175.361ZM1846.42 165.505C1846.24 165.185 1845.18 165.964 1843.84 167.624H1843.84C1843.57 168.083 1843.32 168.535 1843.06 168.999C1846.27 165.608 1836.84 179.614 1841.22 173.735C1840.63 175.782 1840.81 175.432 1842.21 173.843C1842.34 173.705 1841.75 175.012 1841.83 174.919C1842.97 173.345 1844.06 171.29 1844.44 171.502C1844.69 171.045 1844.93 170.614 1845.18 170.159C1843.7 171.796 1845.26 168.698 1845.71 167.383C1845.91 166.783 1845.11 167.94 1845.27 167.433C1845.33 167.243 1846.49 165.653 1846.42 165.505ZM1933.68 171.995C1932.09 172.518 1928.2 174.38 1930.24 174.059C1931.36 173.343 1932.51 172.651 1933.68 171.995ZM1942.25 172.762C1942.85 172.428 1940.94 172.304 1939.93 172.745C1939.82 172.793 1939.04 173.448 1939.36 173.436C1939.36 173.437 1939.36 173.437 1939.36 173.437C1939.69 173.415 1941.95 172.912 1942.25 172.762ZM1985.78 173.215C1984.91 172.587 1982.74 172.241 1982.69 172.32V172.319C1982.24 172.957 1983.99 172.72 1984.62 172.882C1985.25 173.037 1985.95 173.647 1985.78 173.215ZM1938.31 172.839C1938.61 172.712 1943.77 171.011 1940.7 171.553C1940.46 171.571 1936.81 172.669 1936.57 172.859C1936.07 173.194 1937.47 173.049 1938.31 172.839ZM1976.59 171.393C1974.58 172.619 1972.22 170.069 1973.75 171.696C1973.92 171.873 1975.15 172.028 1973.88 172.087C1973.88 172.087 1973.88 172.089 1973.88 172.089C1975.56 172.394 1975.84 172.258 1977.12 172.972C1976.91 172.297 1975.38 171.654 1978.47 172.287C1978.36 172.129 1978.24 171.97 1978.12 171.813C1977.61 171.667 1977.11 171.531 1976.59 171.393ZM1956.79 171.841C1956.7 171.817 1955.83 171.88 1955.64 171.884C1956.43 172.786 1958.19 172.295 1956.79 171.841ZM1966.19 170.867C1967.8 170.714 1964.03 169.4 1963.11 169.598C1961.23 169.951 1965.65 170.881 1966.19 170.867ZM1940.17 169.975C1940.22 169.796 1938.5 170.109 1938.02 170.371C1937.54 170.629 1937.66 171.105 1938.67 170.724C1938.78 170.682 1938.54 170.482 1938.89 170.334C1939.25 170.184 1940.13 170.147 1940.17 169.975ZM1853.11 161.203C1853.35 160.562 1851.61 162.689 1851.57 162.702C1851.02 162.825 1851.73 161.451 1851.18 161.611C1850.93 161.682 1849.95 163.051 1849.62 163.133C1849.47 163.164 1850.15 161.677 1849.59 162.215C1848.28 164.147 1847.01 166.148 1845.8 168.159C1847.03 166.913 1848.72 164.004 1849.28 164.147C1848.94 164.694 1848.62 165.238 1848.3 165.79C1847.93 166.129 1847.56 166.465 1847.2 166.803C1846.35 168.643 1847.11 167.683 1845.07 170.809C1846.96 169.315 1847.42 169.17 1850.4 163.492C1850.07 164.724 1851.83 164.603 1853.11 161.203ZM1957.26 169.476C1957.03 169.403 1953.92 169.247 1953.78 169.299C1953 169.501 1954.18 169.994 1953.96 170.07C1953.24 170.311 1952.22 170.094 1952.04 170.405C1951.63 171.063 1953.42 170.275 1953.74 170.254C1954.67 170.178 1954.6 170.538 1955.31 170.586C1956.01 170.636 1956.46 170.508 1957.08 170.53C1957.29 170.538 1957.12 170.783 1957.21 170.786C1957.27 170.786 1957.32 170.786 1957.37 170.786C1958.97 170.771 1959.09 170.151 1958.92 169.91C1958.76 169.669 1957.59 169.878 1957.37 169.86C1957.37 169.859 1957.36 169.859 1957.35 169.858C1957.09 169.794 1957.24 169.74 1957.37 169.681C1957.48 169.632 1957.57 169.577 1957.37 169.508C1957.34 169.498 1957.31 169.487 1957.26 169.476ZM1945.42 169.233C1946.88 168.418 1943.83 168.97 1943.47 169.024C1941.83 169.212 1941.73 168.608 1940.12 169.186C1940.77 169.399 1941.31 169.649 1941.92 169.885C1943.87 169.773 1943.61 169.189 1945.42 169.233ZM1949.19 168.207C1946.19 168.62 1950.73 168.855 1950.65 169.188C1952.19 168.862 1949.55 168.151 1949.19 168.207ZM1960.34 167.579C1958.46 167.543 1956.98 168.998 1960.4 168.426C1960.9 168.348 1961.75 167.621 1960.34 167.579ZM1955.38 167.518C1953.79 167.568 1953.93 168.091 1952.09 167.999C1951.79 167.987 1952.4 167.507 1951.06 167.755C1951.47 167.948 1951.89 168.169 1952.29 168.38C1953.9 168.093 1953.64 167.901 1955.62 168.065C1955.54 167.883 1955.46 167.697 1955.38 167.518ZM1962.54 167.099C1964 167.54 1965.16 167.377 1966.98 167.755C1968.13 168.01 1967.61 168.23 1969.96 168.252C1969.96 168.251 1969.96 168.251 1969.95 168.251C1967.82 167.606 1964.99 167.015 1962.54 167.099ZM1850.79 160.46C1852.43 157.636 1847.68 163.524 1846.65 165.445C1846.98 165.181 1850.21 161.409 1850.79 160.46ZM1848 162.86C1846.98 164 1847.87 161.447 1846.52 163.318C1844.17 166.648 1846.53 164.848 1848 162.86ZM1856.75 157.04C1858.71 154.404 1855 158.062 1853.86 159.631C1853.6 160.33 1855.5 158.728 1856.75 157.04ZM1864.78 144.997C1864.97 144.543 1863.1 144.901 1861.62 146.079C1861.21 146.702 1860.87 147.316 1860.5 147.94C1859.98 148.513 1859.46 149.092 1858.95 149.673C1858.8 149.662 1858.65 149.637 1858.49 149.641C1857.78 150.375 1858.17 150.193 1857.98 150.429L1857.98 150.428C1855.26 153.835 1854.13 155.196 1851.73 157.655C1852.02 157.882 1852.32 158.11 1852.61 158.338C1853.05 157.714 1853.5 157.088 1853.95 156.472C1854.05 156.032 1854.15 155.589 1854.25 155.148C1854.89 154.533 1855.54 153.929 1856.2 153.328C1856.6 152.742 1857.1 152.049 1857.45 151.543C1860.55 149.583 1854.76 155.141 1855.09 155.506C1855.23 155.68 1860.47 149.623 1861.18 148.692C1861.28 148.553 1859.51 149.282 1861.84 147.424C1862.21 147.137 1863.49 148.179 1864.78 144.997ZM1862.94 148.863C1863.92 147.519 1865.78 144.969 1863.25 147.332C1862.2 148.327 1862.73 148.109 1862.67 148.17C1860.8 150.054 1860.74 149.561 1858.59 151.929C1854.72 156.33 1859.24 151.435 1860.46 150.492C1851.63 160.846 1861.36 149.218 1862.94 148.863ZM1874.03 137.863C1869.63 141.371 1873.1 138.224 1873.13 138.159C1872.85 136.842 1866.87 142.814 1867.04 141.03C1867.03 141.031 1867.03 141.033 1867.03 141.034C1862.17 146.304 1866.51 143.227 1870.14 140.679C1870.5 140.217 1870.89 139.745 1871.26 139.293C1869.68 141.525 1866.56 144.96 1874.03 137.863ZM1871.72 138.136C1872.49 136.783 1871.5 137.739 1870.26 138.788C1869.02 139.84 1870.19 138.09 1868.5 139.704C1866.36 141.792 1869.84 139.733 1871.72 138.136ZM1881.4 129.831C1881.65 129.413 1880.04 129.792 1879.23 130.081C1878.21 131.392 1876.97 132.319 1878.46 131.899L1877.91 132.331C1875.26 134.328 1874.51 133.706 1873.88 134.223C1871.57 136.192 1874.31 135.016 1873.01 136.416C1876.27 133.463 1875.63 134.677 1878.31 132.695C1878.9 132.249 1881.15 130.244 1881.4 129.831ZM1885.43 130.266C1873.54 138.394 1882.45 132.674 1880.6 135.188C1882.07 134.104 1883.57 133.054 1885.08 132.032C1884.65 132.25 1884.22 132.467 1883.79 132.69C1883.79 132.691 1883.79 132.693 1883.79 132.694C1884.32 131.882 1884.87 131.07 1885.43 130.266ZM2008.12 116.664C2007.97 116.629 2009.95 117.83 2010.08 117.906C2012.17 119.029 2014.4 119.617 2014.73 119.774C2016.44 120.582 2016.02 120.77 2016.42 121.052C2017.15 121.585 2018.62 122.177 2018.71 122.24C2021.09 123.824 2015.37 120.736 2014.51 120.502C2012.23 119.804 2014.1 120.945 2008.86 118.848C2008.36 118.647 2002.49 116.176 2009.75 119.646C1994.9 114.368 2016.9 122.998 2019.06 124.491C2020.14 124.982 2018.72 123.844 2019.42 124.056C2021.03 124.536 2023.5 125.894 2023.52 125.363C2023.55 124.223 2019.98 122.942 2017.78 121.637C2018.1 121.572 2018.29 121.441 2018.79 121.471C2018.4 121.546 2023.58 124.518 2023.79 124.62L2023.79 124.619C2027.02 125.651 2022.11 121.581 2016 119.034C2015.48 118.804 2019.16 120.928 2017.97 120.497C2017.85 120.447 2015.78 119.392 2015.21 119.243C2014.65 119.091 2015.08 119.574 2014.19 119.265C2012.64 118.714 2009.36 116.901 2008.12 116.664ZM2016.68 122.758C2018.09 124.11 2006.7 118.532 2015.02 121.507C2012.74 120.749 2016.57 122.613 2016.68 122.758ZM1899.03 119.894C1892.79 124.28 1908.74 116.115 1905.94 117.146C1905.65 117.179 1898.75 120.646 1899.03 119.894ZM1911.09 116.838C1911.15 115.998 1908.79 117.813 1907.76 118.349C1906.72 118.875 1905.13 119.256 1905.81 119.318C1907.62 118.766 1911.06 116.931 1911.09 116.838ZM2000.92 115.569C2003.82 116.514 2011.23 119.436 2008 117.542C2005.65 116.817 2003.28 116.156 2000.92 115.569ZM2008.05 115.796C2004.86 114.299 2001.58 113.917 2006.07 115.759C2008.24 116.684 2009.98 116.722 2008.05 115.796ZM1988.94 112.07C1988.75 112.181 1991.79 113.086 1992.76 113.249C1993.72 113.403 1993.9 112.927 1991.95 112.492C1991.73 112.445 1992 112.782 1991.31 112.65C1990.62 112.515 1989.13 111.953 1988.94 112.07ZM1925.58 109.843C1922.42 110.749 1922.07 111.073 1919.34 111.526C1920.26 111.881 1923.24 111.147 1917.66 113.136C1917.98 113.159 1918.3 113.181 1918.61 113.207C1919.56 112.906 1920.48 112.623 1921.45 112.339C1923.93 109.798 1929.84 110.471 1926.08 110.083C1925.67 110.041 1923.4 110.764 1925.59 109.842C1925.58 109.843 1925.58 109.843 1925.58 109.843ZM1979.47 109.752C1976.54 109.83 1982.14 110.734 1982.77 110.921C1985.69 111.658 1985.49 112.241 1988.51 112.768C1987.58 112.166 1986.82 111.615 1985.92 111.044C1982.48 110 1982.63 110.673 1979.47 109.752ZM1994.14 111.09C1993.53 110.813 1983.35 108.833 1989.09 110.401C1989.54 110.473 1996.54 112.339 1997.08 112.47C1998.18 112.641 1995.74 111.564 1994.14 111.09ZM1948.08 109.544C1945.38 109.408 1943.35 109.865 1940.02 110.159C1937.91 110.368 1938.72 109.892 1934.63 110.955C1934.63 110.954 1934.64 110.954 1934.64 110.954C1938.63 110.503 1943.72 110.089 1948.08 109.544ZM1987.13 108.363C1985.83 108.27 1989.2 109.569 1991.26 109.952C1991.49 109.99 1993.35 110.05 1992.77 109.814C1992.77 109.815 1992.77 109.815 1992.78 109.816C1992.2 109.559 1987.76 108.391 1987.13 108.363ZM1969.98 107.858C1967.06 107.777 1971.71 109.148 1972.34 109.236C1977.87 109.855 1969.81 108.097 1969.98 107.858ZM1961 108.694C1963.89 108.795 1963.71 108.243 1967.05 108.681C1967.59 108.76 1966.39 109.085 1968.87 109.152C1968.17 108.863 1967.46 108.554 1966.76 108.265C1963.76 108.26 1964.23 108.469 1960.59 108.13C1960.73 108.318 1960.87 108.509 1961 108.694ZM1951.96 108.726C1955.36 108.583 1958.08 107.034 1951.76 107.889C1950.83 108.03 1949.41 108.864 1951.96 108.726ZM1946.5 107.208C1950 106.406 1941.34 106.583 1940.33 106.904C1937.38 107.632 1944.85 107.527 1946.5 107.208ZM1957.37 105.35C1954.24 105.384 1954.06 106.055 1954.4 106.275C1954.74 106.497 1956.95 106.25 1957.37 106.275C1957.39 106.276 1957.4 106.277 1957.41 106.278C1957.91 106.343 1957.62 106.395 1957.37 106.454C1957.17 106.503 1957 106.558 1957.37 106.627C1957.43 106.637 1957.5 106.648 1957.58 106.66C1958.02 106.684 1963.89 107.081 1964.16 107.097C1965.67 107.016 1963.5 106.348 1963.93 106.306C1965.35 106.163 1967.24 106.585 1967.67 106.325C1968.6 105.759 1964.99 106.164 1964.38 106.157C1962.58 106.099 1962.75 105.755 1961.39 105.639C1960.03 105.53 1959.14 105.638 1957.93 105.607C1957.53 105.597 1957.87 105.353 1957.69 105.35C1957.58 105.349 1957.48 105.35 1957.37 105.35ZM1960.83 104.316C1959.31 103.341 1955.73 103.834 1958.55 104.301C1958.71 104.324 1960.46 104.302 1960.83 104.316Z" fill="#E90929"/>
<path d="M1911.67 278.119C1909.3 279.487 1907.01 280.189 1904.78 280.226C1902.56 280.262 1900.5 279.703 1898.62 278.547C1896.74 277.359 1895.13 275.611 1893.8 273.304C1892.81 271.579 1892.16 269.887 1891.87 268.227C1891.58 266.534 1891.65 264.918 1892.06 263.377C1892.46 261.815 1893.2 260.362 1894.28 259.018C1895.39 257.661 1896.82 256.473 1898.59 255.453C1899.62 254.853 1900.75 254.382 1901.97 254.04C1903.19 253.666 1904.34 253.49 1905.4 253.512C1906.09 253.503 1906.66 253.662 1907.09 253.991C1907.53 254.319 1907.84 254.726 1908.01 255.21C1908.2 255.683 1908.24 256.159 1908.12 256.639C1908.03 257.106 1907.81 257.502 1907.44 257.825C1907.07 258.148 1906.55 258.325 1905.87 258.354C1905.03 258.34 1904.22 258.448 1903.44 258.678C1902.66 258.907 1901.91 259.226 1901.21 259.634C1899.82 260.438 1898.8 261.397 1898.17 262.51C1897.55 263.59 1897.3 264.788 1897.42 266.104C1897.54 267.419 1898.04 268.835 1898.92 270.352C1899.78 271.849 1900.76 272.989 1901.85 273.773C1902.94 274.557 1904.11 274.96 1905.37 274.981C1906.64 274.969 1907.97 274.561 1909.36 273.757C1910.03 273.373 1910.65 272.9 1911.24 272.338C1911.85 271.764 1912.38 271.114 1912.82 270.389C1913.21 269.806 1913.63 269.437 1914.09 269.28C1914.57 269.09 1915.03 269.073 1915.48 269.229C1915.94 269.352 1916.32 269.604 1916.62 269.983C1916.94 270.351 1917.14 270.791 1917.21 271.302C1917.29 271.814 1917.18 272.347 1916.89 272.902C1916.42 273.866 1915.71 274.817 1914.76 275.756C1913.8 276.695 1912.77 277.483 1911.67 278.119ZM1928.77 268.247C1926.96 269.291 1925.22 269.869 1923.54 269.98C1921.86 270.059 1920.33 269.71 1918.94 268.934C1917.56 268.124 1916.4 266.909 1915.46 265.288C1914.55 263.708 1914.09 262.134 1914.07 260.565C1914.04 258.975 1914.42 257.506 1915.22 256.157C1916.03 254.775 1917.2 253.646 1918.71 252.77C1919.81 252.134 1920.92 251.745 1922.03 251.603C1923.13 251.441 1924.2 251.516 1925.24 251.83C1926.26 252.123 1927.23 252.662 1928.12 253.447C1929.01 254.211 1929.79 255.186 1930.48 256.37C1930.7 256.765 1930.75 257.139 1930.62 257.491C1930.48 257.822 1930.17 258.125 1929.7 258.401L1919.91 264.053L1918.5 261.621L1926.36 257.085L1926.11 257.81C1925.62 256.958 1925.09 256.323 1924.51 255.906C1923.93 255.468 1923.31 255.241 1922.67 255.226C1922.04 255.199 1921.39 255.384 1920.7 255.78C1919.93 256.224 1919.38 256.779 1919.04 257.444C1918.71 258.109 1918.58 258.859 1918.68 259.692C1918.77 260.525 1919.09 261.409 1919.63 262.344L1919.77 262.594C1920.68 264.173 1921.72 265.127 1922.88 265.455C1924.06 265.772 1925.37 265.51 1926.83 264.67C1927.33 264.382 1927.86 263.989 1928.44 263.493C1929.01 262.996 1929.5 262.451 1929.9 261.856C1930.25 261.352 1930.63 261.033 1931.06 260.9C1931.47 260.747 1931.85 260.745 1932.22 260.895C1932.58 261.045 1932.87 261.291 1933.1 261.632C1933.34 261.962 1933.48 262.357 1933.49 262.818C1933.5 263.259 1933.35 263.719 1933.04 264.2C1932.56 265.003 1931.93 265.756 1931.15 266.459C1930.39 267.171 1929.6 267.767 1928.77 268.247ZM1940.33 261.492C1939.54 261.948 1938.81 262.088 1938.16 261.912C1937.5 261.736 1936.95 261.264 1936.51 260.495L1930.12 249.427C1929.67 248.658 1929.54 247.962 1929.7 247.339C1929.88 246.684 1930.33 246.146 1931.06 245.726C1931.81 245.294 1932.5 245.172 1933.13 245.359C1933.76 245.526 1934.29 245.994 1934.73 246.763L1935.67 248.384L1935.36 248.564C1934.89 247.173 1934.88 245.889 1935.34 244.711C1935.79 243.533 1936.67 242.512 1937.97 241.649C1938.47 241.308 1938.94 241.215 1939.39 241.371C1939.85 241.494 1940.29 241.892 1940.71 242.566C1941.12 243.186 1941.28 243.773 1941.18 244.328C1941.11 244.87 1940.74 245.386 1940.08 245.878L1939.4 246.354C1938.28 247.142 1937.59 247.995 1937.35 248.913C1937.12 249.819 1937.33 250.822 1937.96 251.924L1941.31 257.723C1941.75 258.492 1941.89 259.204 1941.71 259.86C1941.56 260.504 1941.1 261.048 1940.33 261.492ZM1959.21 250.675C1957.77 251.503 1956.43 251.96 1955.18 252.046C1953.94 252.119 1952.82 251.837 1951.82 251.199C1950.83 250.548 1949.94 249.527 1949.13 248.134L1945.75 242.273L1944.44 243.029C1943.86 243.365 1943.31 243.473 1942.8 243.353C1942.31 243.221 1941.91 242.885 1941.59 242.345C1941.26 241.763 1941.16 241.236 1941.31 240.765C1941.46 240.262 1941.83 239.842 1942.41 239.506L1943.72 238.75L1942.35 236.38C1941.89 235.591 1941.76 234.878 1941.95 234.243C1942.12 233.588 1942.58 233.044 1943.33 232.612C1944.1 232.168 1944.8 232.04 1945.44 232.227C1946.06 232.394 1946.6 232.873 1947.06 233.662L1948.42 236.032L1951.39 234.322C1951.97 233.986 1952.51 233.884 1953 234.015C1953.48 234.126 1953.88 234.473 1954.22 235.055C1954.53 235.595 1954.62 236.111 1954.49 236.603C1954.36 237.095 1954 237.509 1953.42 237.845L1950.46 239.555L1953.73 245.229C1954.24 246.102 1954.81 246.643 1955.46 246.851C1956.13 247.048 1956.91 246.888 1957.8 246.372C1958.11 246.192 1958.39 245.993 1958.62 245.774C1958.86 245.556 1959.08 245.37 1959.3 245.218C1959.58 245.029 1959.87 244.984 1960.18 245.084C1960.47 245.163 1960.81 245.535 1961.2 246.2C1961.48 246.699 1961.65 247.184 1961.7 247.654C1961.75 248.124 1961.62 248.562 1961.3 248.968C1961.09 249.228 1960.76 249.528 1960.32 249.866C1959.91 250.213 1959.54 250.483 1959.21 250.675ZM1967.1 245.992C1966.33 246.436 1965.61 246.56 1964.94 246.364C1964.29 246.135 1963.72 245.615 1963.25 244.804L1957.1 234.141C1956.62 233.31 1956.45 232.562 1956.59 231.898C1956.74 231.2 1957.2 230.63 1957.97 230.186C1958.72 229.754 1959.43 229.652 1960.08 229.882C1960.75 230.078 1961.33 230.592 1961.81 231.423L1967.96 242.086C1968.43 242.897 1968.6 243.645 1968.47 244.33C1968.32 244.994 1967.87 245.548 1967.1 245.992ZM1956.5 227.629C1955.63 228.133 1954.84 228.326 1954.13 228.207C1953.43 228.055 1952.87 227.605 1952.44 226.857C1951.99 226.088 1951.88 225.374 1952.11 224.715C1952.35 224.023 1952.91 223.426 1953.78 222.922C1954.65 222.418 1955.44 222.241 1956.14 222.393C1956.82 222.524 1957.39 222.974 1957.83 223.743C1958.26 224.491 1958.37 225.205 1958.15 225.885C1957.92 226.544 1957.37 227.125 1956.5 227.629ZM1976.64 240.523C1975.88 240.967 1975.16 241.101 1974.51 240.926C1973.87 240.738 1973.33 240.26 1972.89 239.491L1967.31 229.826L1966.19 230.474C1965.61 230.81 1965.06 230.918 1964.55 230.798C1964.05 230.666 1963.65 230.33 1963.34 229.79C1963 229.208 1962.91 228.681 1963.05 228.21C1963.2 227.707 1963.57 227.287 1964.15 226.951L1966.65 225.511L1966 227.55L1965.44 226.583C1964.18 224.401 1963.76 222.437 1964.2 220.69C1964.63 218.944 1965.84 217.344 1967.83 215.892L1968.68 215.276C1969.24 214.899 1969.74 214.718 1970.19 214.734C1970.66 214.717 1971.03 214.845 1971.33 215.117C1971.65 215.378 1971.88 215.703 1972.02 216.092C1972.16 216.481 1972.19 216.877 1972.12 217.279C1972.06 217.649 1971.86 217.94 1971.54 218.153L1970.93 218.593C1969.92 219.255 1969.33 219.941 1969.16 220.65C1968.99 221.36 1969.16 222.161 1969.68 223.055L1970.29 224.115L1969.39 223.927L1978.12 218.887C1978.87 218.455 1979.57 218.353 1980.23 218.583C1980.9 218.779 1981.47 219.283 1981.93 220.093L1987.96 230.538C1988.43 231.348 1988.6 232.096 1988.47 232.781C1988.33 233.446 1987.87 234 1987.1 234.444C1986.35 234.876 1985.65 234.994 1984.98 234.797C1984.3 234.58 1983.72 234.066 1983.26 233.256L1977.78 223.778L1972.02 227.108L1977.6 236.773C1978.52 238.373 1978.2 239.623 1976.64 240.523ZM1976.59 216.027C1975.76 216.507 1975 216.681 1974.32 216.551C1973.64 216.387 1973.09 215.931 1972.66 215.183C1972.21 214.414 1972.09 213.706 1972.3 213.059C1972.52 212.379 1973.04 211.799 1973.88 211.319C1974.71 210.839 1975.46 210.681 1976.14 210.845C1976.82 210.976 1977.39 211.426 1977.83 212.195C1978.26 212.943 1978.37 213.657 1978.15 214.337C1977.95 214.983 1977.43 215.547 1976.59 216.027ZM2001.08 226.499C1999.27 227.543 1997.53 228.121 1995.85 228.232C1994.17 228.311 1992.64 227.962 1991.25 227.186C1989.87 226.376 1988.71 225.161 1987.77 223.539C1986.86 221.96 1986.4 220.386 1986.38 218.817C1986.35 217.227 1986.73 215.758 1987.53 214.409C1988.34 213.027 1989.5 211.898 1991.02 211.022C1992.12 210.386 1993.23 209.997 1994.34 209.855C1995.44 209.693 1996.51 209.768 1997.55 210.082C1998.57 210.375 1999.54 210.914 2000.43 211.699C2001.32 212.463 2002.1 213.438 2002.79 214.622C2003.01 215.017 2003.06 215.391 2002.93 215.743C2002.79 216.074 2002.48 216.377 2002.01 216.653L1992.22 222.305L1990.81 219.873L1998.67 215.337L1998.42 216.062C1997.93 215.21 1997.4 214.575 1996.82 214.158C1996.24 213.72 1995.62 213.493 1994.98 213.478C1994.35 213.451 1993.7 213.636 1993.01 214.032C1992.24 214.476 1991.69 215.031 1991.35 215.696C1991.01 216.361 1990.89 217.11 1990.99 217.944C1991.08 218.777 1991.4 219.661 1991.94 220.596L1992.08 220.846C1992.99 222.425 1994.03 223.379 1995.19 223.707C1996.37 224.024 1997.68 223.762 1999.14 222.922C1999.64 222.634 2000.17 222.241 2000.75 221.745C2001.32 221.248 2001.81 220.703 2002.21 220.108C2002.56 219.604 2002.94 219.285 2003.36 219.152C2003.77 218.998 2004.16 218.997 2004.53 219.147C2004.89 219.297 2005.18 219.543 2005.41 219.884C2005.65 220.214 2005.79 220.609 2005.8 221.07C2005.81 221.511 2005.66 221.971 2005.35 222.452C2004.87 223.255 2004.24 224.008 2003.46 224.711C2002.7 225.423 2001.91 226.019 2001.08 226.499ZM1991.67 208.112C1991.61 208.589 1991.42 208.95 1991.09 209.196C1990.78 209.429 1990.42 209.553 1990.02 209.567C1989.61 209.58 1989.24 209.473 1988.92 209.245C1988.6 208.985 1988.43 208.614 1988.4 208.131L1988.07 202.457C1988.02 201.88 1988.13 201.427 1988.41 201.099C1988.71 200.758 1989.08 200.531 1989.51 200.419C1989.97 200.295 1990.41 200.29 1990.84 200.405C1991.27 200.486 1991.63 200.696 1991.91 201.034C1992.18 201.372 1992.29 201.822 1992.23 202.385L1991.67 208.112ZM2018.19 216.62C2016.38 217.664 2014.64 218.242 2012.96 218.353C2011.28 218.432 2009.75 218.083 2008.36 217.307C2006.98 216.497 2005.82 215.282 2004.88 213.661C2003.97 212.081 2003.51 210.507 2003.49 208.938C2003.46 207.349 2003.84 205.879 2004.64 204.53C2005.45 203.148 2006.62 202.019 2008.13 201.143C2009.23 200.507 2010.34 200.118 2011.45 199.976C2012.55 199.814 2013.62 199.889 2014.66 200.203C2015.69 200.496 2016.65 201.035 2017.54 201.82C2018.43 202.584 2019.21 203.559 2019.9 204.744C2020.13 205.138 2020.17 205.512 2020.05 205.864C2019.9 206.195 2019.59 206.498 2019.12 206.774L2009.33 212.426L2007.92 209.994L2015.78 205.458L2015.53 206.183C2015.04 205.331 2014.51 204.696 2013.93 204.279C2013.35 203.841 2012.73 203.614 2012.09 203.599C2011.46 203.572 2010.81 203.757 2010.12 204.153C2009.35 204.597 2008.8 205.152 2008.46 205.817C2008.13 206.482 2008 207.232 2008.1 208.065C2008.19 208.898 2008.51 209.782 2009.05 210.717L2009.19 210.967C2010.1 212.546 2011.14 213.5 2012.3 213.829C2013.48 214.145 2014.8 213.883 2016.25 213.043C2016.75 212.755 2017.28 212.363 2017.86 211.866C2018.43 211.369 2018.92 210.824 2019.32 210.229C2019.67 209.725 2020.05 209.406 2020.48 209.273C2020.89 209.12 2021.27 209.118 2021.64 209.268C2022 209.418 2022.29 209.664 2022.52 210.005C2022.77 210.335 2022.9 210.73 2022.91 211.191C2022.92 211.632 2022.77 212.093 2022.46 212.573C2021.99 213.376 2021.35 214.129 2020.57 214.832C2019.81 215.544 2019.02 216.14 2018.19 216.62Z" fill="#E90929"/>
<path d="M1860.33 257.78C1860.85 260.06 1860.87 262.12 1860.37 263.96C1859.87 265.799 1858.92 267.342 1857.53 268.588C1856.13 269.815 1854.36 270.676 1852.21 271.171C1850.62 271.541 1849.11 271.633 1847.69 271.447C1846.27 271.242 1844.98 270.78 1843.83 270.061C1842.67 269.322 1841.7 268.337 1840.9 267.105C1840.08 265.858 1839.47 264.387 1839.08 262.692C1838.87 261.795 1838.76 260.845 1838.76 259.841C1838.73 258.821 1838.83 257.894 1839.07 257.059C1839.23 256.446 1839.52 255.98 1839.92 255.662C1840.31 255.345 1840.76 255.17 1841.24 255.14C1841.72 255.091 1842.18 255.159 1842.61 255.347C1843.05 255.534 1843.38 255.826 1843.62 256.223C1843.83 256.625 1843.87 257.108 1843.74 257.674C1843.6 258.321 1843.53 258.953 1843.53 259.569C1843.5 260.17 1843.56 260.783 1843.71 261.406C1843.99 262.614 1844.45 263.574 1845.11 264.284C1845.74 264.979 1846.55 265.43 1847.52 265.637C1848.49 265.843 1849.62 265.798 1850.9 265.501C1852.19 265.204 1853.23 264.747 1854.04 264.13C1854.82 263.518 1855.35 262.759 1855.63 261.852C1855.89 260.93 1855.88 259.865 1855.6 258.657C1855.49 258.15 1855.3 257.618 1855.05 257.06C1854.78 256.507 1854.44 255.98 1854.04 255.478C1853.65 254.952 1853.46 254.451 1853.47 253.976C1853.48 253.481 1853.63 253.057 1853.92 252.703C1854.2 252.33 1854.57 252.05 1855.02 251.864C1855.45 251.682 1855.91 251.647 1856.41 251.758C1856.9 251.849 1857.34 252.116 1857.73 252.56C1858.3 253.148 1858.82 253.921 1859.29 254.88C1859.75 255.82 1860.1 256.787 1860.33 257.78Z" fill="#E90929"/>
<path d="M1859.81 228.324C1859.65 230.118 1859.21 231.645 1858.47 232.906C1857.72 234.145 1856.74 235.063 1855.52 235.66C1854.31 236.256 1852.91 236.486 1851.34 236.349C1849.82 236.217 1848.53 235.772 1847.45 235.016C1846.35 234.237 1845.54 233.243 1845 232.032C1844.44 230.799 1844.23 229.435 1844.36 227.941C1844.46 226.845 1844.72 225.864 1845.16 224.999C1845.58 224.132 1846.15 223.409 1846.89 222.831C1847.6 222.25 1848.44 221.842 1849.4 221.605C1850.37 221.348 1851.43 221.27 1852.58 221.37C1852.98 221.405 1853.27 221.541 1853.45 221.777C1853.61 222.012 1853.67 222.369 1853.63 222.847L1852.83 231.992L1850.32 231.773L1850.9 225.138L1851.25 225.65C1850.51 225.586 1849.9 225.634 1849.43 225.793C1848.95 225.952 1848.58 226.221 1848.3 226.598C1848.03 226.956 1847.87 227.424 1847.82 228.001C1847.77 228.619 1847.87 229.17 1848.13 229.654C1848.37 230.117 1848.76 230.492 1849.29 230.78C1849.83 231.068 1850.52 231.248 1851.35 231.321L1851.62 231.345C1853.04 231.468 1854.08 231.248 1854.75 230.684C1855.41 230.099 1855.79 229.148 1855.91 227.833C1855.94 227.395 1855.94 226.893 1855.89 226.326C1855.82 225.738 1855.71 225.176 1855.55 224.641C1855.4 224.105 1855.41 223.654 1855.58 223.288C1855.73 222.92 1855.98 222.65 1856.31 222.479C1856.63 222.285 1856.99 222.196 1857.39 222.211C1857.77 222.224 1858.14 222.347 1858.5 222.579C1858.84 222.81 1859.09 223.163 1859.25 223.639C1859.51 224.364 1859.68 225.132 1859.77 225.943C1859.87 226.734 1859.88 227.527 1859.81 228.324Z" fill="#E90929"/>
<path d="M1866.08 202.266C1865.74 203.076 1865.26 203.613 1864.65 203.875C1864.05 204.119 1863.34 204.069 1862.53 203.725L1853.39 199.847C1852.6 199.512 1852.08 199.051 1851.83 198.467C1851.58 197.863 1851.62 197.175 1851.95 196.402C1852.28 195.629 1852.74 195.129 1853.34 194.904C1853.93 194.678 1854.63 194.734 1855.42 195.069L1856.55 195.55L1856.43 195.826C1855.41 195.173 1854.73 194.333 1854.41 193.305C1854.09 192.258 1854.16 191.156 1854.6 189.999C1854.81 189.457 1855.12 189.12 1855.52 188.987C1855.91 188.828 1856.5 188.903 1857.28 189.213C1857.95 189.494 1858.41 189.855 1858.68 190.295C1858.95 190.735 1858.96 191.357 1858.7 192.162L1858.49 192.821C1858.17 193.835 1858.14 194.661 1858.42 195.299C1858.67 195.928 1859.24 196.43 1860.12 196.805L1864.65 198.726C1865.46 199.07 1865.99 199.543 1866.23 200.146C1866.48 200.749 1866.43 201.456 1866.08 202.266Z" fill="#E90929"/>
<path d="M1885.38 171.888C1884.4 173.021 1883.41 173.806 1882.42 174.244C1881.44 174.667 1880.45 174.758 1879.44 174.517C1878.42 174.263 1877.37 173.676 1876.32 172.758L1872.63 169.551L1871.96 170.321C1871.54 170.804 1871.08 171.07 1870.59 171.119C1870.11 171.152 1869.63 170.959 1869.14 170.54C1868.66 170.12 1868.41 169.677 1868.39 169.21C1868.37 168.715 1868.57 168.226 1868.99 167.743L1869.66 166.973L1868.26 165.753C1867.59 165.176 1867.24 164.563 1867.19 163.914C1867.15 163.265 1867.4 162.616 1867.97 161.967C1868.53 161.318 1869.14 160.971 1869.79 160.925C1870.44 160.879 1871.09 161.145 1871.76 161.722L1873.16 162.942L1874.78 161.085C1875.21 160.587 1875.67 160.321 1876.14 160.288C1876.62 160.226 1877.1 160.405 1877.59 160.824C1878.07 161.244 1878.32 161.701 1878.34 162.196C1878.38 162.676 1878.18 163.165 1877.74 163.663L1876.13 165.52L1879.68 168.609C1880.24 169.094 1880.77 169.327 1881.26 169.306C1881.76 169.258 1882.25 168.946 1882.75 168.373C1882.94 168.161 1883.09 167.938 1883.21 167.702C1883.34 167.467 1883.47 167.266 1883.62 167.1C1883.81 166.845 1884.06 166.714 1884.36 166.708C1884.64 166.688 1885.06 166.921 1885.62 167.406C1886.07 167.799 1886.4 168.202 1886.6 168.613C1886.78 169.011 1886.79 169.443 1886.62 169.909C1886.52 170.185 1886.33 170.525 1886.06 170.926C1885.8 171.341 1885.58 171.662 1885.38 171.888Z" fill="#E90929"/>
<path d="M1906.14 155.109C1905.42 155.542 1904.74 155.663 1904.09 155.471C1903.43 155.28 1902.87 154.781 1902.38 153.975L1897.5 145.851C1897.01 145.045 1896.84 144.31 1896.98 143.644C1897.11 142.978 1897.54 142.429 1898.26 141.996C1899 141.553 1899.69 141.428 1900.34 141.619C1901.01 141.8 1901.59 142.294 1902.07 143.099L1906.96 151.224C1907.44 152.03 1907.62 152.765 1907.48 153.431C1907.34 154.096 1906.9 154.656 1906.14 155.109ZM1897.16 140.171C1896.36 140.655 1895.62 140.843 1894.95 140.734C1894.29 140.614 1893.75 140.195 1893.31 139.475C1892.89 138.772 1892.78 138.103 1892.98 137.468C1893.2 136.823 1893.71 136.259 1894.52 135.774C1895.36 135.269 1896.11 135.077 1896.76 135.196C1897.42 135.316 1897.96 135.727 1898.38 136.429C1898.81 137.149 1898.93 137.827 1898.73 138.461C1898.52 139.096 1898 139.666 1897.16 140.171Z" fill="#E90929"/>
<path d="M1934.92 142.566C1934.08 142.759 1933.39 142.684 1932.84 142.339C1932.29 141.995 1931.91 141.394 1931.71 140.536L1929.82 132.352L1929.06 132.528C1928.44 132.672 1927.91 132.619 1927.48 132.369C1927.08 132.114 1926.8 131.675 1926.66 131.051C1926.51 130.428 1926.57 129.922 1926.83 129.533C1927.1 129.121 1927.55 128.843 1928.18 128.699L1930.43 128.179L1929.25 129.897L1929.06 129.078C1928.56 126.915 1928.73 125.174 1929.55 123.855C1930.39 122.511 1931.86 121.485 1933.95 120.775L1934.78 120.491C1935.38 120.269 1935.9 120.232 1936.32 120.381C1936.74 120.509 1937.06 120.743 1937.28 121.082C1937.5 121.401 1937.62 121.765 1937.63 122.172C1937.66 122.576 1937.59 122.941 1937.42 123.267C1937.25 123.594 1936.97 123.822 1936.59 123.951L1936.19 124.075C1935.21 124.383 1934.57 124.757 1934.26 125.198C1933.96 125.639 1933.88 126.2 1934.04 126.882L1934.26 127.847L1933.5 127.469L1935.8 126.935C1936.45 126.787 1936.97 126.84 1937.38 127.095C1937.78 127.33 1938.06 127.759 1938.2 128.383C1938.35 129.006 1938.29 129.522 1938.04 129.93C1937.78 130.338 1937.33 130.616 1936.69 130.765L1935.02 131.15L1936.92 139.334C1937.32 141.088 1936.66 142.165 1934.92 142.566Z" fill="#E90929"/>
<path d="M1964.39 141.635C1963.55 141.562 1962.93 141.256 1962.51 140.718C1962.1 140.18 1961.93 139.443 1962.01 138.506L1962.84 129.062C1962.92 128.126 1963.21 127.428 1963.71 126.97C1964.21 126.512 1964.88 126.32 1965.72 126.393C1966.57 126.467 1967.21 126.774 1967.63 127.312C1968.06 127.852 1968.24 128.59 1968.15 129.526L1967.33 138.97C1967.25 139.907 1966.96 140.604 1966.46 141.062C1965.95 141.52 1965.27 141.711 1964.39 141.635ZM1965.9 124.271C1964.97 124.189 1964.26 123.906 1963.78 123.423C1963.32 122.941 1963.13 122.282 1963.2 121.445C1963.27 120.628 1963.57 120.022 1964.11 119.627C1964.67 119.234 1965.41 119.078 1966.35 119.16C1967.33 119.245 1968.04 119.529 1968.5 120.011C1968.96 120.492 1969.16 121.142 1969.09 121.959C1969.01 122.795 1968.71 123.411 1968.17 123.806C1967.64 124.201 1966.88 124.356 1965.9 124.271Z" fill="#E90929"/>
<path d="M1994.93 149.506C1993.27 148.804 1991.95 147.909 1990.98 146.823C1990.03 145.726 1989.47 144.507 1989.27 143.166C1989.08 141.824 1989.3 140.426 1989.91 138.972C1990.51 137.573 1991.33 136.477 1992.38 135.685C1993.46 134.883 1994.66 134.414 1995.98 134.277C1997.32 134.131 1998.68 134.35 2000.06 134.936C2001.08 135.365 2001.93 135.922 2002.62 136.605C2003.31 137.269 2003.82 138.039 2004.14 138.915C2004.48 139.773 2004.61 140.697 2004.53 141.687C2004.48 142.685 2004.23 143.718 2003.77 144.786C2003.62 145.154 2003.4 145.387 2003.12 145.486C2002.84 145.565 2002.49 145.512 2002.05 145.324L1993.59 141.739L1994.58 139.419L2000.71 142.02L2000.11 142.192C2000.4 141.511 2000.55 140.919 2000.54 140.418C2000.54 139.916 2000.4 139.477 2000.12 139.099C1999.87 138.73 1999.47 138.432 1998.94 138.206C1998.37 137.964 1997.81 137.891 1997.27 137.987C1996.76 138.073 1996.28 138.327 1995.84 138.749C1995.4 139.171 1995.02 139.768 1994.69 140.542L1994.58 140.79C1994.03 142.097 1993.92 143.158 1994.24 143.97C1994.6 144.773 1995.38 145.432 1996.6 145.947C1997 146.119 1997.48 146.268 1998.04 146.395C1998.62 146.511 1999.19 146.578 1999.75 146.597C2000.3 146.616 2000.73 146.764 2001.02 147.042C2001.33 147.3 2001.51 147.616 2001.57 147.989C2001.65 148.351 2001.63 148.72 2001.49 149.096C2001.36 149.454 2001.13 149.768 2000.79 150.04C2000.47 150.293 2000.06 150.422 1999.55 150.427C1998.79 150.448 1998 150.376 1997.2 150.211C1996.42 150.054 1995.66 149.819 1994.93 149.506Z" fill="#E90929"/>
<path d="M2018.42 164.17C2017.47 163.344 2016.82 162.375 2016.49 161.264C2016.17 160.167 2016.18 158.996 2016.52 157.753C2016.87 156.524 2017.57 155.312 2018.6 154.12C2019.67 152.897 2020.78 152.032 2021.93 151.526C2023.1 151.033 2024.25 150.867 2025.38 151.028C2026.53 151.203 2027.58 151.704 2028.53 152.53C2029.36 153.251 2029.94 154.097 2030.26 155.067C2030.58 156.036 2030.59 156.929 2030.28 157.745L2030.03 157.529L2034.24 152.682C2034.82 152.018 2035.43 151.663 2036.08 151.618C2036.73 151.572 2037.38 151.831 2038.03 152.395C2038.66 152.946 2039 153.546 2039.05 154.195C2039.11 154.857 2038.85 155.52 2038.27 156.185L2027.59 168.481C2027.01 169.146 2026.4 169.501 2025.75 169.546C2025.11 169.605 2024.47 169.352 2023.82 168.788C2023.19 168.237 2022.85 167.637 2022.8 166.988C2022.76 166.339 2023.02 165.683 2023.6 165.018L2024.72 163.728L2024.01 165.054C2023.21 165.549 2022.28 165.714 2021.24 165.546C2020.22 165.376 2019.28 164.918 2018.42 164.17ZM2022.29 162.325C2022.69 162.679 2023.14 162.896 2023.63 162.975C2024.13 163.039 2024.64 162.94 2025.16 162.676C2025.71 162.411 2026.27 161.946 2026.85 161.282C2027.73 160.27 2028.16 159.375 2028.15 158.596C2028.15 157.802 2027.85 157.143 2027.24 156.618C2026.84 156.264 2026.39 156.047 2025.9 155.968C2025.41 155.889 2024.9 155.982 2024.35 156.247C2023.81 156.498 2023.25 156.962 2022.66 157.642C2021.79 158.638 2021.36 159.533 2021.36 160.327C2021.36 161.121 2021.67 161.787 2022.29 162.325Z" fill="#E90929"/>
<path d="M2051.67 218.221C2051.15 215.941 2051.13 213.881 2051.63 212.041C2052.13 210.202 2053.08 208.659 2054.47 207.413C2055.87 206.186 2057.64 205.325 2059.79 204.83C2061.38 204.46 2062.89 204.368 2064.31 204.554C2065.73 204.759 2067.02 205.221 2068.17 205.94C2069.33 206.679 2070.3 207.664 2071.1 208.896C2071.92 210.143 2072.53 211.614 2072.92 213.309C2073.13 214.206 2073.24 215.156 2073.24 216.16C2073.27 217.18 2073.17 218.107 2072.93 218.942C2072.77 219.555 2072.48 220.021 2072.08 220.339C2071.69 220.657 2071.24 220.831 2070.76 220.861C2070.28 220.91 2069.82 220.842 2069.39 220.654C2068.95 220.467 2068.62 220.175 2068.38 219.778C2068.17 219.376 2068.13 218.893 2068.26 218.327C2068.4 217.68 2068.47 217.048 2068.47 216.432C2068.5 215.831 2068.44 215.218 2068.29 214.595C2068.01 213.387 2067.55 212.427 2066.89 211.717C2066.26 211.022 2065.45 210.571 2064.48 210.364C2063.51 210.158 2062.38 210.203 2061.1 210.5C2059.81 210.797 2058.77 211.254 2057.96 211.871C2057.18 212.483 2056.65 213.242 2056.37 214.149C2056.11 215.071 2056.12 216.136 2056.4 217.344C2056.51 217.851 2056.7 218.383 2056.95 218.941C2057.22 219.494 2057.56 220.021 2057.96 220.523C2058.35 221.049 2058.54 221.55 2058.53 222.025C2058.52 222.52 2058.37 222.944 2058.08 223.298C2057.8 223.671 2057.43 223.951 2056.98 224.137C2056.55 224.319 2056.09 224.354 2055.59 224.243C2055.1 224.152 2054.66 223.885 2054.27 223.441C2053.7 222.854 2053.18 222.08 2052.71 221.121C2052.25 220.181 2051.9 219.214 2051.67 218.221Z" fill="#E90929"/>
<path d="M2052.19 247.677C2052.35 245.883 2052.79 244.356 2053.53 243.095C2054.28 241.856 2055.26 240.938 2056.48 240.341C2057.69 239.745 2059.09 239.515 2060.66 239.652C2062.18 239.784 2063.47 240.229 2064.55 240.985C2065.65 241.764 2066.46 242.758 2067 243.97C2067.55 245.202 2067.77 246.566 2067.64 248.06C2067.54 249.156 2067.28 250.137 2066.84 251.002C2066.42 251.869 2065.85 252.592 2065.11 253.17C2064.4 253.751 2063.56 254.159 2062.6 254.396C2061.63 254.653 2060.57 254.731 2059.41 254.631C2059.02 254.596 2058.73 254.46 2058.55 254.224C2058.39 253.989 2058.33 253.632 2058.37 253.154L2059.17 244.009L2061.68 244.228L2061.1 250.863L2060.75 250.351C2061.49 250.415 2062.1 250.367 2062.57 250.208C2063.05 250.049 2063.42 249.78 2063.7 249.403C2063.97 249.045 2064.13 248.577 2064.18 248C2064.23 247.382 2064.13 246.831 2063.87 246.347C2063.63 245.884 2063.24 245.509 2062.7 245.221C2062.17 244.933 2061.48 244.753 2060.64 244.68L2060.38 244.656C2058.96 244.533 2057.92 244.753 2057.25 245.317C2056.59 245.902 2056.21 246.853 2056.09 248.168C2056.06 248.606 2056.06 249.108 2056.11 249.675C2056.18 250.263 2056.29 250.825 2056.45 251.36C2056.6 251.896 2056.59 252.347 2056.42 252.713C2056.27 253.081 2056.02 253.351 2055.69 253.522C2055.37 253.716 2055.01 253.805 2054.61 253.79C2054.23 253.777 2053.86 253.654 2053.5 253.422C2053.16 253.191 2052.91 252.838 2052.75 252.363C2052.49 251.637 2052.31 250.869 2052.22 250.058C2052.13 249.268 2052.12 248.474 2052.19 247.677Z" fill="#E90929"/>
<path d="M2045.91 273.735C2046.26 272.925 2046.73 272.389 2047.35 272.126C2047.95 271.883 2048.65 271.932 2049.47 272.276L2058.61 276.154C2059.4 276.49 2059.92 276.95 2060.17 277.535C2060.42 278.138 2060.37 278.826 2060.05 279.599C2059.72 280.373 2059.26 280.872 2058.66 281.097C2058.07 281.323 2057.37 281.268 2056.58 280.932L2055.45 280.451L2055.56 280.175C2056.59 280.828 2057.27 281.668 2057.59 282.697C2057.91 283.743 2057.84 284.845 2057.39 286.002C2057.19 286.544 2056.88 286.881 2056.48 287.014C2056.08 287.173 2055.5 287.098 2054.71 286.788C2054.05 286.507 2053.59 286.147 2053.32 285.706C2053.05 285.266 2053.04 284.644 2053.29 283.839L2053.51 283.181C2053.83 282.166 2053.85 281.34 2053.58 280.703C2053.33 280.073 2052.76 279.571 2051.87 279.196L2047.34 277.275C2046.53 276.931 2046.01 276.458 2045.76 275.855C2045.52 275.252 2045.57 274.545 2045.91 273.735Z" fill="#E90929"/>
<path d="M2026.62 304.113C2027.6 302.98 2028.59 302.195 2029.58 301.757C2030.56 301.334 2031.55 301.243 2032.56 301.484C2033.58 301.738 2034.62 302.325 2035.68 303.243L2039.37 306.45L2040.04 305.68C2040.46 305.197 2040.92 304.931 2041.41 304.882C2041.89 304.849 2042.37 305.042 2042.85 305.461C2043.34 305.881 2043.59 306.324 2043.61 306.791C2043.63 307.286 2043.43 307.775 2043.01 308.258L2042.34 309.028L2043.74 310.248C2044.41 310.825 2044.76 311.438 2044.81 312.087C2044.85 312.736 2044.59 313.385 2044.03 314.034C2043.47 314.683 2042.86 315.031 2042.21 315.076C2041.56 315.122 2040.9 314.856 2040.24 314.279L2038.84 313.059L2037.22 314.916C2036.79 315.414 2036.33 315.68 2035.85 315.713C2035.38 315.775 2034.9 315.596 2034.41 315.177C2033.93 314.757 2033.68 314.3 2033.66 313.805C2033.62 313.325 2033.82 312.836 2034.26 312.338L2035.87 310.481L2032.31 307.392C2031.76 306.907 2031.23 306.674 2030.73 306.695C2030.24 306.743 2029.75 307.055 2029.25 307.628C2029.06 307.84 2028.91 308.063 2028.78 308.299C2028.66 308.535 2028.52 308.735 2028.38 308.901C2028.19 309.156 2027.94 309.287 2027.64 309.293C2027.36 309.313 2026.94 309.08 2026.38 308.595C2025.93 308.202 2025.6 307.799 2025.4 307.388C2025.22 306.99 2025.21 306.558 2025.38 306.093C2025.48 305.816 2025.67 305.476 2025.94 305.075C2026.2 304.66 2026.42 304.339 2026.62 304.113Z" fill="#E90929"/>
<path d="M2005.86 320.892C2006.57 320.459 2007.26 320.339 2007.91 320.53C2008.56 320.722 2009.13 321.22 2009.62 322.026L2014.5 330.15C2014.99 330.956 2015.16 331.692 2015.02 332.357C2014.89 333.023 2014.46 333.572 2013.74 334.005C2013 334.448 2012.31 334.574 2011.65 334.382C2010.99 334.201 2010.41 333.708 2009.92 332.902L2005.04 324.777C2004.56 323.972 2004.38 323.236 2004.52 322.57C2004.66 321.905 2005.1 321.345 2005.86 320.892ZM2014.84 335.83C2015.64 335.346 2016.38 335.158 2017.05 335.267C2017.71 335.387 2018.25 335.807 2018.68 336.527C2019.11 337.229 2019.22 337.898 2019.02 338.533C2018.8 339.178 2018.28 339.743 2017.48 340.227C2016.64 340.732 2015.89 340.925 2015.24 340.805C2014.58 340.686 2014.04 340.274 2013.62 339.572C2013.19 338.852 2013.07 338.174 2013.27 337.54C2013.48 336.905 2014 336.335 2014.84 335.83Z" fill="#E90929"/>
<path d="M1977.08 333.435C1977.91 333.242 1978.61 333.317 1979.16 333.662C1979.71 334.006 1980.09 334.607 1980.29 335.465L1982.18 343.649L1982.94 343.473C1983.56 343.329 1984.09 343.382 1984.51 343.633C1984.92 343.887 1985.2 344.326 1985.34 344.95C1985.49 345.573 1985.43 346.079 1985.17 346.468C1984.9 346.88 1984.45 347.158 1983.82 347.302L1981.57 347.823L1982.75 346.104L1982.93 346.923C1983.43 349.086 1983.27 350.827 1982.45 352.146C1981.61 353.49 1980.14 354.516 1978.05 355.226L1977.22 355.51C1976.62 355.732 1976.1 355.769 1975.68 355.621C1975.26 355.492 1974.94 355.258 1974.71 354.919C1974.5 354.6 1974.38 354.237 1974.37 353.829C1974.34 353.426 1974.41 353.061 1974.58 352.734C1974.75 352.407 1975.03 352.179 1975.41 352.05L1975.81 351.926C1976.78 351.618 1977.43 351.244 1977.74 350.803C1978.04 350.363 1978.12 349.801 1977.96 349.119L1977.74 348.154L1978.5 348.532L1976.19 349.066C1975.55 349.214 1975.03 349.161 1974.62 348.907C1974.21 348.671 1973.94 348.242 1973.8 347.618C1973.65 346.995 1973.71 346.479 1973.96 346.071C1974.22 345.663 1974.67 345.385 1975.31 345.237L1976.98 344.852L1975.08 336.667C1974.68 334.914 1975.34 333.836 1977.08 333.435Z" fill="#E90929"/>
<path d="M1947.61 334.366C1948.45 334.439 1949.07 334.745 1949.49 335.283C1949.9 335.821 1950.07 336.558 1949.99 337.495L1949.16 346.939C1949.08 347.875 1948.79 348.573 1948.29 349.031C1947.79 349.489 1947.12 349.681 1946.28 349.608C1945.42 349.534 1944.79 349.227 1944.37 348.689C1943.94 348.149 1943.76 347.411 1943.84 346.475L1944.67 337.031C1944.75 336.094 1945.04 335.397 1945.54 334.939C1946.04 334.481 1946.73 334.29 1947.61 334.366ZM1946.1 351.73C1947.03 351.812 1947.74 352.095 1948.22 352.578C1948.68 353.06 1948.87 353.719 1948.8 354.556C1948.73 355.373 1948.43 355.979 1947.89 356.374C1947.33 356.767 1946.59 356.923 1945.65 356.841C1944.67 356.756 1943.96 356.472 1943.5 355.991C1943.04 355.509 1942.84 354.859 1942.91 354.043C1942.99 353.206 1943.29 352.59 1943.83 352.195C1944.36 351.8 1945.12 351.645 1946.1 351.73Z" fill="#E90929"/>
<path d="M1917.07 326.495C1918.73 327.197 1920.04 328.092 1921.02 329.178C1921.96 330.275 1922.53 331.494 1922.73 332.835C1922.92 334.177 1922.7 335.575 1922.09 337.029C1921.49 338.428 1920.67 339.524 1919.62 340.316C1918.54 341.118 1917.34 341.587 1916.02 341.724C1914.68 341.87 1913.32 341.651 1911.93 341.065C1910.92 340.636 1910.07 340.079 1909.38 339.396C1908.69 338.732 1908.18 337.962 1907.85 337.086C1907.52 336.228 1907.39 335.304 1907.47 334.314C1907.52 333.316 1907.77 332.283 1908.23 331.215C1908.38 330.847 1908.6 330.614 1908.88 330.515C1909.15 330.436 1909.51 330.489 1909.95 330.677L1918.41 334.262L1917.42 336.582L1911.29 333.981L1911.88 333.809C1911.6 334.491 1911.45 335.082 1911.46 335.584C1911.46 336.085 1911.6 336.524 1911.88 336.902C1912.13 337.271 1912.53 337.569 1913.06 337.795C1913.63 338.037 1914.19 338.11 1914.73 338.014C1915.24 337.928 1915.72 337.674 1916.16 337.252C1916.6 336.83 1916.98 336.233 1917.31 335.459L1917.42 335.211C1917.97 333.904 1918.08 332.843 1917.75 332.031C1917.4 331.228 1916.61 330.569 1915.4 330.054C1914.99 329.882 1914.51 329.733 1913.96 329.606C1913.38 329.49 1912.81 329.423 1912.25 329.404C1911.7 329.385 1911.27 329.237 1910.98 328.96C1910.67 328.701 1910.49 328.385 1910.43 328.012C1910.35 327.65 1910.37 327.281 1910.51 326.905C1910.64 326.547 1910.87 326.233 1911.2 325.961C1911.53 325.708 1911.94 325.579 1912.44 325.574C1913.21 325.553 1914 325.625 1914.8 325.79C1915.58 325.947 1916.34 326.182 1917.07 326.495Z" fill="#E90929"/>
<path d="M1893.58 311.831C1894.53 312.657 1895.18 313.626 1895.51 314.737C1895.83 315.834 1895.82 317.005 1895.48 318.248C1895.13 319.477 1894.43 320.689 1893.39 321.881C1892.33 323.104 1891.22 323.969 1890.07 324.475C1888.9 324.969 1887.75 325.134 1886.62 324.973C1885.47 324.798 1884.42 324.297 1883.47 323.471C1882.64 322.75 1882.06 321.904 1881.74 320.934C1881.42 319.965 1881.41 319.072 1881.72 318.256L1881.97 318.473L1877.76 323.319C1877.18 323.983 1876.57 324.338 1875.92 324.384C1875.27 324.429 1874.62 324.17 1873.97 323.606C1873.34 323.055 1873 322.455 1872.95 321.806C1872.89 321.144 1873.15 320.481 1873.73 319.816L1884.41 307.52C1884.99 306.855 1885.6 306.5 1886.25 306.455C1886.89 306.396 1887.53 306.649 1888.18 307.213C1888.81 307.764 1889.15 308.364 1889.2 309.013C1889.24 309.662 1888.97 310.318 1888.4 310.983L1887.28 312.273L1887.99 310.947C1888.79 310.452 1889.72 310.287 1890.76 310.455C1891.78 310.625 1892.72 311.083 1893.58 311.831ZM1889.71 313.676C1889.31 313.322 1888.86 313.105 1888.37 313.026C1887.87 312.962 1887.36 313.061 1886.84 313.325C1886.29 313.59 1885.73 314.055 1885.15 314.719C1884.27 315.731 1883.84 316.626 1883.85 317.405C1883.85 318.199 1884.15 318.858 1884.76 319.383C1885.16 319.737 1885.61 319.954 1886.1 320.033C1886.59 320.112 1887.1 320.019 1887.65 319.754C1888.19 319.503 1888.75 319.039 1889.34 318.359C1890.21 317.363 1890.64 316.468 1890.64 315.674C1890.64 314.88 1890.33 314.214 1889.71 313.676Z" fill="#E90929"/>
</svg>
